<svg xmlns="http://www.w3.org/2000/svg" xmlns:xlink="http://www.w3.org/1999/xlink" width="75" height="69" xmlns:v="https://vecta.io/nano"><g transform="matrix(-1 0 0 1 75 0)" fill="none" fill-rule="evenodd"><path fill="#ff3c35" d="M62.97 30.25V10.2H32.113L27.03 29.404v26.53h8.206"/><g fill-rule="nonzero"><path fill="#d5eaff" d="M41.345 30.118l-9.94-.1 4.09-15.517h23.41V28.29"/><path d="M35.497 14.66h23.41c-6.666.987-12.274 2.76-16.826 5.318s-8.1 5.938-10.674 10.14l4.09-15.457z" fill="#bfd2e5"/></g><path d="M69.83 49.434h3.92C73.75 37.094 64 27.1 51.952 27.1S30.156 37.094 30.156 49.434v6.5m-5.986-.001h2.862V29.32H6.105c-2.768 0-5 2.302-5 5.143v21.47" fill="#ff3c35"/><g fill-rule="nonzero"><path d="M6.105 29.48c-2.768 0-5.01 2.282-5.01 5.1v5.736c0-2.818 2.243-5.1 5.01-5.1H27.03V29.48H6.105z" fill-opacity=".2" fill="#000"/><ellipse fill="#736f7b" cx="52.109" cy="49.559" rx="17.891" ry="18.326"/><path d="M48.648 31.233c1.11 0 2.187.136 3.227.4-5.22 1.05-10.552 5.11-12.655 10.604-.87 2.275-1.348 4.804-1.348 7.46 0 1.44.14 2.837.408 4.178 1.38 6.897 7.087 12.3 13.032 13.758a13.62 13.62 0 0 1-2.665.263c-7.432 0-13.654-6.036-15.27-14.148-.27-1.34-.408-2.737-.408-4.178a23.1 23.1 0 0 1 .062-1.64c.154-2.057.6-4.015 1.294-5.82 2.44-6.398 7.94-10.867 14.324-10.867z" fill="#595959"/><ellipse fill="#dcdbde" cx="51.953" cy="49.4" rx="11.172" ry="11.473"/><g fill="#736f7b"><ellipse cx="52.069" cy="49.508" rx="4.212" ry="4.314"/><ellipse cx="12.596" cy="56.019" rx="11.569" ry="11.847"/></g><path d="M10.636 45.16c.662 0 1.306.08 1.927.23-3.12.623-6.303 3.028-7.56 6.28-.52 1.347-.805 2.845-.805 4.418 0 .853.083 1.68.244 2.475.823 4.085 4.233 7.284 7.784 8.15a8.2 8.2 0 0 1-1.592.156c-4.44 0-8.156-3.575-9.122-8.38-.16-.795-.244-1.62-.244-2.475 0-.327.014-.65.037-.972.092-1.218.36-2.378.773-3.446 1.458-3.8 4.743-6.436 8.556-6.436z" fill="#595959"/><ellipse fill="#dcdbde" cx="12.656" cy="56.092" rx="3.906" ry="3.984"/><path fill="#cc302a" d="M25 5.737h37.97V10.2H25z"/><path d="M5.156 41.9c2.07 0 3.75-1.783 3.75-3.984s-1.68-3.984-3.75-3.984V41.9z" fill="#ffe300"/><path d="M15.567 13.386h-2.853c-1.154 0-2.09.958-2.09 2.14V29.48h7.03V15.525c0-1.182-.935-2.14-2.09-2.14z" fill="#736f7b"/><g fill="#000"><path d="M15.625 13.39l-.06-.003h-2.852c-1.153 0-2.088.958-2.088 2.14V29.48h2.972V15.525c0-1.16.903-2.104 2.028-2.136z" fill-opacity=".2"/><path d="M52.1 36.97c-6.763 0-12.266 5.612-12.266 12.5S45.346 62 52.1 62s12.266-5.612 12.266-12.5-5.502-12.5-12.266-12.5zm0 22.748c-5.536 0-10.04-4.593-10.04-10.24s4.504-10.24 10.04-10.24 10.04 4.593 10.04 10.24-4.504 10.24-10.04 10.24zM64.2 29.693V5.95c0-.63-.5-1.138-1.114-1.138H58.96a1.12 1.12 0 0 0-1.114 1.138h0c0 .63.5 1.138 1.114 1.138h3.002v2.1h-35.7v-2.1H53.76a1.12 1.12 0 0 0 1.114-1.138h0c0-.63-.5-1.138-1.114-1.138H25.14a1.12 1.12 0 0 0-1.114 1.138v4.377c0 .63.5 1.138 1.114 1.138h5.57l-4.488 16.93h-7.555V15.62c0-1.807-1.433-3.27-3.2-3.27h-.444v-7.4c0-1.475 1.17-2.67 2.613-2.67h1.133a1.12 1.12 0 0 0 1.114-1.138h0c0-.63-.5-1.138-1.114-1.138h-1.133c-2.673 0-4.84 2.214-4.84 4.946v7.4h-.18c-1.768 0-3.2 1.465-3.2 3.27v12.776H6.13C2.745 28.395 0 31.2 0 34.66v21.385C0 63.196 5.68 69 12.662 69c6.606 0 12.044-5.198 12.6-11.8h9.3C37.5 64.13 44.23 69 52.066 69c10.108 0 18.397-8.103 18.976-18.286h2.844c.615 0 1.114-.5 1.114-1.14 0-8.376-4.324-15.738-10.8-19.882zM11.642 15.62c0-.548.437-.995.974-.995h2.85c.537 0 .974.446.974.995v12.776h-4.798V15.62zm1.02 51.105c-5.754 0-10.435-4.783-10.435-10.662h0v-.018C2.237 50.175 6.913 45.4 12.66 45.4c5.754 0 10.435 4.783 10.435 10.663s-4.68 10.662-10.435 10.662zm13.3-21.18v9.38h-.688c-.566-6.603-6.004-11.8-12.6-11.8-4.325 0-8.15 2.23-10.434 5.62V34.66c0-2.203 1.748-4 3.904-4h19.83v9.56c0 .63.5 1.138 1.114 1.138h0a1.12 1.12 0 0 0 1.114-1.138V29.684l4.83-18.22h28.945v16.972a22.59 22.59 0 0 0-1.987-.86V14.634c0-.63-.5-1.138-1.114-1.138h-23.47c-.503 0-.944.344-1.075.84l-4.1 15.472c-.12.45.04.943.433 1.23a1.14 1.14 0 0 0 .663.207l6.407.064c-5.23 4.3-8.586 10.9-8.586 18.268v5.347h-.944v-9.38c0-.63-.5-1.138-1.114-1.138h0a1.12 1.12 0 0 0-1.114 1.138zm15.024-16.48l-8.242-.082 3.502-13.2H57.75V26.87a22.45 22.45 0 0 0-5.682-.73 22.41 22.41 0 0 0-11.081 2.923zm11.08 37.66c-9.254 0-16.782-7.693-16.782-17.148S42.812 32.43 52.066 32.43s16.782 7.693 16.782 17.148-7.528 17.148-16.782 17.148zM71.042 48.44c-.578-10.183-8.868-18.287-18.976-18.287-10.482 0-19 8.714-19 19.425a19.77 19.77 0 0 0 .733 5.347h-2.43v-5.347c0-11.667 9.288-21.16 20.705-21.16 11.044 0 20.097 8.88 20.677 20.02h-1.7zM5.177 32.667c-.615 0-1.114.5-1.114 1.14v7.916c0 .63.5 1.14 1.114 1.14 2.746 0 4.98-2.288 4.98-5.1s-2.234-5.1-4.98-5.1zm1.114 7.675v-5.15c.963.44 1.637 1.428 1.637 2.576s-.673 2.137-1.637 2.576z"/><use xlink:href="#B"/><use xlink:href="#B" y="3.665"/><use xlink:href="#B" y="7.33"/><path d="M8.744 54.903c.687 0 1.244.568 1.244 1.27 0 1.544 1.232 2.8 2.746 2.8s2.746-1.256 2.746-2.8-1.232-2.8-2.746-2.8c-.687 0-1.244-.568-1.244-1.27s.557-1.27 1.244-1.27c2.886 0 5.234 2.395 5.234 5.338s-2.348 5.33-5.234 5.33S7.5 59.116 7.5 56.172c0-.7.557-1.27 1.244-1.27zM48.12 48.2c.687 0 1.244.568 1.244 1.27 0 1.544 1.232 2.8 2.746 2.8s2.746-1.256 2.746-2.8-1.232-2.8-2.746-2.8c-.687 0-1.244-.568-1.244-1.27s.557-1.27 1.244-1.27c2.886 0 5.234 2.395 5.234 5.338s-2.348 5.338-5.234 5.338-5.234-2.395-5.234-5.338c0-.7.557-1.27 1.244-1.27z"/></g></g></g><defs ><path id="B" d="M21.534 32.03h-5.098a1.12 1.12 0 0 0-1.123 1.115 1.12 1.12 0 0 0 1.123 1.115h5.098a1.12 1.12 0 0 0 1.123-1.115 1.12 1.12 0 0 0-1.123-1.115z"/></defs></svg>