<svg xmlns="http://www.w3.org/2000/svg" xmlns:xlink="http://www.w3.org/1999/xlink" width="94" height="51" xmlns:v="https://vecta.io/nano"><g transform="matrix(-1 0 0 1 94 0)" fill="none" fill-rule="evenodd"><path d="M64.88 12.517V8.865c0-.966-.794-1.75-1.774-1.75h-4.23a1.78 1.78 0 0 0-1.497.81l-2.967 4.59-1.452 3.4h11.653l.268-3.4z" fill="#736f7b" fill-rule="nonzero"/><path d="M79.702 12.538H52.974a2.3 2.3 0 0 0-1.665.711l-4.346 4.565-4.39 4.043H69.27l2.215-3.498 8.47-4.895c.444-.255.26-.926-.253-.926h0z" fill="#ff3c35"/><g fill-rule="nonzero"><path d="M52.97 20.12l4.346-4.565a2.3 2.3 0 0 1 1.665-.711h18.6l2.386-1.38c.444-.255.26-.926-.253-.926H52.974a2.3 2.3 0 0 0-1.665.711l-4.346 4.565-4.39 4.043h8.508l1.888-1.738z" fill-opacity=".2" fill="#000"/><g fill="#d5eaff"><path d="M76.543 27.01l.282-1.755-4.575-6.78a1.17 1.17 0 0 0-.968-.514h-7.764l4.69 6.952 1.837 2.7 6.925.006-.428-.61z"/><path d="M68.18 24.77l-4.695-6.98h-21.12l-8.56 9.656c0 .055-2.642 3.05-2.642 3.05h37.293l-.276-5.727z"/></g><path d="M75.95 24.77l-1.85-2.744H50.575c-1.27 0-1.946-1.483-1.108-2.428l1.606-1.81h-8.69L33.8 27.447c0 .055-2.647 3.05-2.647 3.05h37.36l7.426-5.727z" fill="#bfd2e5"/></g><g fill="#ff3c35"><path d="M81.832 32.663a.7.7 0 0 0-.088-.183l-4.84-7.198a.78.78 0 0 0-.646-.343H45.114c-.353 0-.69.14-.94.387l-2.362 2.346H3.652c-1.214 0-2.2.978-2.2 2.184v2.808l10.943 4.72H66.32l14.848-4.72h.664z"/><path d="M81.832 32.663H29.556l-5.187 4.133L38.98 45.26h40.357l2.528-7.22v-5.156c0-.075-.013-.15-.035-.22h0z"/></g><path d="M17.14 34.132c-.413-.465-.645-1.095-.645-1.754v-4c0-.25.033-.49.094-.716H3.652c-1.214 0-2.2.978-2.2 2.184v2.808l10.943 4.72h7.63l-2.885-3.25z" fill-opacity=".2" fill="#000" fill-rule="nonzero"/><path d="M92.62 45.567v3.082c0 .492-.402.89-.898.89H18.138a3.17 3.17 0 0 1-2.236-.921L2.098 34.914c-.413-.4-.645-.965-.645-1.545v-.707h26.413c1.082 0 2.12.427 2.884 1.186l6.822 6.775a1.05 1.05 0 0 0 .741.305h24.632c.454 0 .89-.18 1.2-.498l1.952-1.938a1.56 1.56 0 0 1 1.099-.452H84.71a1.7 1.7 0 0 1 1.198.493l6.45 6.404a.89.89 0 0 1 .262.63h0z" fill="#ff3c35"/><g fill-rule="nonzero" fill="#000"><path d="M17.14 34.132c-.353-.398-.572-.915-.63-1.468H1.453v.707c0 .58.232 1.135.645 1.545L15.902 48.62a3.17 3.17 0 0 0 2.236.921H30.81l-13.67-15.41z" fill-opacity=".2"/><path d="M93.332 43.917l-1.09-1.084a1.39 1.39 0 0 0-1.956 0c-.54.538-.54 1.4 0 1.948l.947.943v2.41H18.078c-.476 0-.923-.185-1.26-.52L3.1 33.952h25.832l7.925 7.9c.26.258.61.403.978.403H63.63a1.39 1.39 0 0 0 .978-.403l2.506-2.495H84.83l1.275 1.27a1.39 1.39 0 0 0 1.956 0c.54-.538.54-1.4 0-1.948l-1.68-1.673c-.26-.258-.61-.403-.978-.403h-2.166v-3.796c0-.418-.124-.823-.357-1.17l-8.86-13.21 6.52-3.78c.746-.432 1.096-1.28.87-2.1s-.956-1.388-1.82-1.388h-2.308L84.026 2.3c.463-.606.344-1.47-.264-1.93s-1.476-.343-1.94.263l-8.016 10.496h-7.516V8.856a3.14 3.14 0 0 0-3.143-3.13h-4.197A3.13 3.13 0 0 0 56.3 7.175l-2.535 3.963h-.782c-1.006 0-1.978.42-2.666 1.15l-3.916 4.153h-3.988c-.397 0-.776.17-1.04.467L33.17 26.2H13.996a1.38 1.38 0 0 0-1.383 1.377 1.38 1.38 0 0 0 1.383 1.377H41.77c.367 0 .72-.145.978-.403l2.35-2.34 30.815-.006 3.354 5H73.36a1.38 1.38 0 0 0-1.383 1.377 1.38 1.38 0 0 0 1.383 1.377h7.11v2.64H66.54a1.39 1.39 0 0 0-.978.403l-2.506 2.495H38.408l-5.563-5.54h34.62a1.38 1.38 0 0 0 1.383-1.377 1.38 1.38 0 0 0-1.383-1.377h-64.7v-1.44c0-.448.366-.813.816-.813H8.1a1.38 1.38 0 0 0 1.383-1.377A1.38 1.38 0 0 0 8.1 26.189H3.583A3.58 3.58 0 0 0 0 29.757v3.527c0 .953.373 1.85 1.05 2.522L14.862 49.56a4.53 4.53 0 0 0 3.216 1.326h73.64A2.28 2.28 0 0 0 94 48.615v-3.093a2.25 2.25 0 0 0-.668-1.606h0zM58.634 8.655c.07-.11.188-.174.318-.174h4.197c.208 0 .377.168.377.375v2.282h-6.48l1.588-2.483zm-6.3 5.518c.167-.178.404-.28.65-.28h23.34L71.93 16.44H50.197l2.138-2.267zm-7.81 9.275c-.367 0-.72.145-.978.403l-2.35 2.34h-4.34l6.182-6.995h19.776l2.852 4.252H44.524zm24.47 0l-2.852-4.252h5.075l2.852 4.252h-5.075z"/><use xlink:href="#B"/><path d="M19.91 36.593a1.38 1.38 0 0 0-1.383 1.377 1.38 1.38 0 0 0 1.383 1.377h1.218a1.38 1.38 0 0 0 1.383-1.377 1.38 1.38 0 0 0-1.383-1.377H19.91z"/><use xlink:href="#B" x="-13.05"/><use xlink:href="#C"/><use xlink:href="#C" x="7.22"/><use xlink:href="#C" x="14.441"/></g></g><defs ><path id="B" d="M26.436 36.593a1.38 1.38 0 0 0-1.383 1.377 1.38 1.38 0 0 0 1.383 1.377h1.22a1.38 1.38 0 0 0 1.383-1.377 1.38 1.38 0 0 0-1.383-1.377h-1.22z"/><path id="C" d="M69.103 42.53a1.38 1.38 0 0 0-1.383 1.377 1.38 1.38 0 0 0 1.383 1.377h.924a1.38 1.38 0 0 0 1.383-1.377 1.38 1.38 0 0 0-1.383-1.377h-.924z"/></defs></svg>