<svg xmlns="http://www.w3.org/2000/svg" xmlns:xlink="http://www.w3.org/1999/xlink" width="96" height="55" xmlns:v="https://vecta.io/nano"><g fill-rule="evenodd"><g fill-rule="nonzero"><path d="M92.24 19.653c-1.298 0-2.35-1.08-2.35-2.4V5.817l3.307 1.126A2.08 2.08 0 0 1 94.59 8.92v8.323c0 1.33-1.052 2.4-2.35 2.4h0z" fill="#f7e365"/><path d="M84.363 45.404H5.092c-2.033 0-3.68-1.7-3.68-3.776V5.393c0-2.085 1.648-3.776 3.68-3.776h75.085c1.767 0 3.268 1.327 3.528 3.12l3.338 23.024v14.894c0 1.518-1.2 2.748-2.68 2.748h0z" fill="#d5eaff"/><path d="M83.704 4.738c-.26-1.793-1.76-3.12-3.528-3.12h-5.64c1.767 0 3.268 1.327 3.528 3.12L81.4 27.762v14.894c0 1.518-1.2 2.748-2.68 2.748h5.64c1.48 0 2.68-1.23 2.68-2.748V27.762L83.704 4.738z" fill="#bfd2e5"/><path d="M79.146 32.166v13.238h5.218c1.48 0 2.68-1.23 2.68-2.748V27.762l-.467-3.218c-4.104 0-7.43 3.412-7.43 7.62h0z" fill="#736f7b"/></g><path d="M83.86 5.817l-.156-1.08c-.26-1.793-1.76-3.12-3.528-3.12H5.092c-2.033 0-3.68 1.7-3.68 3.776v.424h82.45z" fill="#ff3c35"/><path d="M71.93 30.462h-5.306V10.575h1.573c2.062 0 3.734 1.714 3.734 3.83v16.057z" fill="#736f7b" fill-rule="nonzero"/><path d="M1.4 20.976v20.653c0 2.085 1.648 3.776 3.68 3.776h79.272c1.48 0 2.68-1.23 2.68-2.748v-4.29l-5.6-4.54c-8.858-7.18-19.817-12.85-31.107-12.85H1.4z" fill="#ff3c35"/><path d="M81.442 33.826c-8.858-7.18-19.817-12.85-31.107-12.85h-5.64c11.3 0 22.25 5.672 31.107 12.85l2.318 1.88c2.073 1.68 3.282 4.24 3.282 6.95 0 1.518-1.2 2.748-2.68 2.748h5.64c1.48 0 2.68-1.23 2.68-2.748v-4.29l-5.6-4.54z" fill-opacity=".2" fill="#000" fill-rule="nonzero"/><path d="M67.766 39.75L64.6 38.444c-15.77-6.504-33.058-10.4-50.806-11.45L1.4 26.26v16.242c0 1.602 1.648 2.9 3.68 2.9h62.674V39.75z" fill="#ff3c35"/><path d="M64.6 38.444c-15.77-6.504-33.058-10.4-50.806-11.45L1.4 26.26v4.006L13.794 31c17.75 1.05 37.884 4.17 53.653 10.673v3.732h.32V39.75L64.6 38.444z" fill-opacity=".2" fill="#000"/><g fill-rule="nonzero"><ellipse fill="#736f7b" cx="67.766" cy="43.657" rx="9.261" ry="9.498"/><use xlink:href="#B" fill="#595959"/><ellipse fill="#dcdbde" cx="67.766" cy="43.657" rx="3.174" ry="3.255"/><ellipse fill="#736f7b" cx="18.538" cy="43.657" rx="9.261" ry="9.498"/><use xlink:href="#B" x="-49.302" fill="#595959"/><ellipse fill="#dcdbde" cx="18.538" cy="43.657" rx="3.174" ry="3.255"/><path fill="#df6937" d="M1.4 31h4.767v6.128H1.4z"/><path d="M22.055.17h58.12c2.396 0 4.473 1.795 4.897 4.2h4.818c.026 0 .05.003.077.004l.05.003c.107.01.21.032.3.065h0l.007.002 3.307 1.126C95.052 6.05 96 7.396 96 8.92h0v8.323c0 2.126-1.687 3.856-3.76 3.856s-3.76-1.73-3.76-3.856h0v-9.98h-2.984l2.94 20.286c.01.07.015.142.015.213h0v14.894c0 2.313-1.834 4.194-4.1 4.194h0-6.2C76.885 51.55 72.68 55 67.688 55S58.5 51.55 57.21 46.85H45.004c-.78 0-1.4-.648-1.4-1.446s.63-1.446 1.4-1.446h11.8l-.002-.1c0-2.284.67-4.408 1.818-6.176-14.183-5.202-29.283-8.307-44.918-9.232h0L2.82 27.793v1.76h3.357c.78 0 1.4.648 1.4 1.446h0v6.128c0 .8-.63 1.446-1.4 1.446h0H2.82v3.054c0 1.284 1.02 2.33 2.27 2.33H7.69l-.002-.1c0-6.062 4.716-10.995 10.6-11.15l.285-.004c6.006 0 10.875 4.994 10.875 11.154l-.001.11h9.926c.78 0 1.4.648 1.4 1.446s-.63 1.446-1.4 1.446h0H29.04C27.76 51.55 23.554 55 18.563 55s-9.197-3.45-10.476-8.15H5.09C2.284 46.85 0 44.507 0 41.628h0V5.393C0 2.514 2.284.17 5.092.17h11.323c.78 0 1.4.648 1.4 1.446s-.63 1.446-1.4 1.446h0H5.092c-.894 0-1.667.534-2.037 1.307h79.088c-.342-.774-1.107-1.307-1.966-1.307h0-58.12c-.78 0-1.4-.648-1.4-1.446s.63-1.446 1.4-1.446zm-3.493 35.954c-4.158 0-7.53 3.457-7.53 7.722s3.37 7.722 7.53 7.722 7.53-3.457 7.53-7.722-3.37-7.722-7.53-7.722zm49.125 0c-4.158 0-7.53 3.457-7.53 7.722s3.37 7.722 7.53 7.722 7.53-3.457 7.53-7.722-3.37-7.722-7.53-7.722zm.348-9.27l.001 5.842c5.845.19 10.527 5.108 10.527 11.148l-.001.11h5.8c.7 0 1.27-.584 1.27-1.302h0v-3.6l-5.064-4.105c-4.457-3.612-8.66-6.228-12.533-8.106h0zm-63.268 5.6H2.82v3.236h1.947v-3.236zm80.61-6.332c-2.482.51-4.427 2.583-4.768 5.233l1.707 1.345 3.316 2.687v-7.5zm-35.043-3.692H2.82v2.474l11.055.654c16.345.967 32.12 4.28 46.907 9.842l-.132-.05c1.296-1.13 2.852-1.952 4.564-2.36V25.6c-6-2.473-11.075-3.168-14.88-3.168h0zm32.3-15.16h-14.6v1.865h.162c2.836 0 5.144 2.367 5.144 5.276h0v11.914c0 .04-.003.076-.006.114a67.89 67.89 0 0 1 4.782 3.081c.384-1.3 1.043-2.467 1.903-3.44h0l-.873-1.352-1.123 1.152c-.275.283-.636.424-.997.424s-.722-.14-.997-.424c-.55-.565-.55-1.48 0-2.045h0l4.436-4.55c.55-.565 1.444-.565 1.994 0s.55 1.48 0 2.045h0l-1.28 1.314c.018.024.036.048.053.074h0l1 1.55c.836-.483 1.756-.83 2.73-1.012h0L82.645 7.263zM68.197 12.02h-.162v11.654c.815.37 1.643.773 2.486 1.207h0V14.404c0-1.314-1.042-2.383-2.324-2.383h0zm-2.983-4.758H51.298v12.28c3.725.104 8.45.833 13.916 2.945h0V7.263zm-16.737 0H34.56V19.53h13.916V7.263zm-16.737 0H17.824V19.53H31.74V7.263zm-16.737 0H2.82V19.53h12.183V7.263zM91.3 7.82v9.423c0 .53.42.963.94.963s.94-.432.94-.963h0V8.92c0-.275-.17-.518-.426-.605h0L91.3 7.82z" fill="#000"/></g><use xlink:href="#C" fill="#000"/><use xlink:href="#C" x="49.313" fill="#000"/></g><defs ><path id="B" d="M75.8 40.235c-1.356-3.09-4.4-5.246-7.955-5.246a8.62 8.62 0 0 0-1.792.188c2.9.508 5.308 2.467 6.475 5.12.483 1.098.75 2.32.75 3.6 0 .696-.077 1.37-.227 2.017-.766 3.33-3.383 5.937-6.685 6.64.48.083.975.127 1.48.127 4.127 0 7.583-2.914 8.48-6.83.15-.648.227-1.32.227-2.017a9.7 9.7 0 0 0-.034-.792 8.8 8.8 0 0 0-.719-2.809h0z"/><path id="C" d="M20.074 44.144c0 .904-.716 1.638-1.597 1.638s-1.597-.734-1.597-1.638.716-1.638 1.597-1.638c.778 0 1.41-.648 1.41-1.445s-.63-1.445-1.41-1.445c-2.435 0-4.415 2.03-4.415 4.528s1.98 4.528 4.415 4.528 4.415-2.03 4.415-4.528c0-.798-.63-1.445-1.41-1.445s-1.41.648-1.41 1.445z"/></defs></svg>