<svg xmlns="http://www.w3.org/2000/svg" width="79" height="56" xmlns:v="https://vecta.io/nano"><style><![CDATA[.B{fill-rule:nonzero}.C{fill:#ff3c35}]]></style><g fill="none" fill-rule="evenodd"><path d="M4.93 42.884h25.208V32.376c0-.3-.242-.545-.54-.545H4.93c-.298 0-.54.244-.54.545v9.963c0 .3.242.545.54.545zm3.7-4.982h8.634a.7.7 0 1 1 0 1.401H8.63a.7.7 0 1 1 0-1.401zm8.634-2.335H8.63a.7.7 0 1 1 0-1.401h8.634a.7.7 0 1 1 0 1.401z" class="C"/><path d="M29.6 31.832h-4.052c-.326 4.325-2.15 8.203-4.92 11.053h9.5v-10.51a.54.54 0 0 0-.538-.545zm.178-1.382l.65.056-1.305-4.863H27.2a1.77 1.77 0 0 0-1.753 1.781v3.02h4.193c.044 0 .087.004.13.007z" fill="#cc302a" class="B"/><path d="M67.243 50.315h8.22a1.79 1.79 0 0 0 1.779-1.794v-8.286l-9.998 10.08zM40.8 47.976H4.922c-1.663 0-3.016 1.364-3.016 3.04s1.353 3.04 3.016 3.04h35.9c1.663 0 3.016-1.364 3.016-3.04s-1.353-3.04-3.016-3.04zm-.5 2.544a.7.7 0 0 1 .49-.205.71.71 0 0 1 .696.701c0 .182-.076.367-.206.497a.7.7 0 0 1-.49.205.71.71 0 0 1-.696-.701c0-.182.076-.367.206-.497zm-2.526.497a.7.7 0 0 1-.696.702H8.635a.702.702 0 1 1 0-1.404h28.463a.7.7 0 0 1 .696.702zM4.432 50.52a.7.7 0 0 1 .49-.205.7.7 0 0 1 .696.701.71.71 0 0 1-.206.497.7.7 0 0 1-.49.205.71.71 0 0 1-.493-.207.71.71 0 0 1-.203-.494c0-.182.076-.367.206-.497z" fill="#736f7b" class="B"/><path d="M42.572 35.4a1.82 1.82 0 0 0-.188-.806l-4-8.112a1.76 1.76 0 0 0-1.59-.997h-6.217l2.973 11.052c.212.78.917 1.327 1.715 1.327h7.308V35.4z" fill="#d5eaff" class="B"/><path d="M42.24 34.617l-3.963-8.08c-.116-.238-.278-.44-.473-.6.27 1.382.412 2.817.412 4.29 0 2.708-.48 5.29-1.35 7.648h5.56V35.42a1.82 1.82 0 0 0-.186-.803z" fill="#bfd2e5" class="B"/><path d="M77.098 38.315L69.2 7.516l-.57.566c-.827.822-1.918 1.274-3.072 1.274a4.35 4.35 0 0 1-.97-.111l-.804-.184 10.69 31.908 2.624-2.654z" class="C"/><path d="M32.39 37.56l-.873.22v5.056h10.983v-3.583h-7.314c-1.17 0-2.242-.65-2.796-1.693z" fill="#cc302a" class="B"/><path d="M61.37 6.532a4.42 4.42 0 0 1-.31-1.633 4.35 4.35 0 0 1 .036-.56l.107-.83-24.5 11.148c-1.025.465-1.84 1.34-2.233 2.4l-2.637 7.083h4.89c.87 0 1.682.346 2.28.975l.557.584 1.136-3.95c.434-1.512 1.485-2.787 2.882-3.497l18.57-9.43-.762-2.265-.008-.023z" class="C"/><g class="B"><path d="M68.467 4.937c0-1.666-1.345-3.02-3-3.02a2.96 2.96 0 0 0-1.187.249c-.02.008-.037.016-.05.024l-.017.007c-1.06.494-1.744 1.57-1.744 2.74 0 .258.036.524.106.8l.004.014.12.36.007.017a3 3 0 0 0 2.76 1.839c1.654 0 3-1.355 3-3.02z" fill="#736f7b"/><path d="M79 38.607V48.6c0 2.022-1.63 3.666-3.633 3.666H63c-.64 0-1.16-.524-1.16-1.17s.52-1.17 1.16-1.17h1.993l7.81-7.88-10.47-31.195-17.91 9.11c-.937.476-1.642 1.332-1.932 2.35l-1.543 5.375 3.04 6.135c.25.505.383 1.073.383 1.64V43.6c0 .646-.52 1.17-1.16 1.17h-7.498v1.404h5.025c2.685 0 4.87 2.204 4.87 4.914S43.422 56 40.737 56H4.87C2.185 56 0 53.796 0 51.086s2.185-4.914 4.87-4.914h5.025V44.77H4.87a2.41 2.41 0 0 1-2.396-2.418v-9.983A2.41 2.41 0 0 1 4.87 29.95H23.5v-2.574c0-2.022 1.63-3.666 3.633-3.666h2.906l2.707-7.282c.566-1.524 1.735-2.783 3.205-3.452L63.342.496A4.81 4.81 0 0 1 65.473 0c2.63 0 4.78 2.115 4.865 4.748l8.625 33.566c.01.04.02.078.025.12v.002a1.08 1.08 0 0 1 .011.158zM76.68 48.6v-7.158l-8.41 8.484h7.095a1.32 1.32 0 0 0 1.314-1.326zm-.13-10.337L68.885 8.416c-.88.872-2.084 1.412-3.412 1.412-.37 0-.73-.044-1.078-.123L74.63 40.192l1.922-1.94zm-8.528-33.34c0-1.42-1.144-2.574-2.55-2.574a2.52 2.52 0 0 0-1.017.215c-.01.003-.017.01-.025.012l-.025.01c-.875.41-1.484 1.3-1.484 2.335a2.61 2.61 0 0 0 .091.674l.11.332c.4.92 1.295 1.568 2.348 1.568 1.407 0 2.55-1.154 2.55-2.574zm-6.445 3.69l-.632-1.883c-.22-.56-.343-1.17-.343-1.808a4.83 4.83 0 0 1 .04-.621L36.904 15.11a3.83 3.83 0 0 0-1.988 2.142l-2.4 6.46h4.22c1 0 1.942.413 2.614 1.12l.912-3.178a6.17 6.17 0 0 1 3.117-3.789l18.2-9.26zm-18.29 42.482c0-1.42-1.144-2.574-2.55-2.574H4.87c-1.407 0-2.55 1.154-2.55 2.574s1.144 2.574 2.55 2.574h35.867c1.407 0 2.55-1.154 2.55-2.574zM42.05 42.43v-2.652h-6.846c-1.36 0-2.582-.77-3.203-1.942v4.594h10.05zm0-4.992v-1.984a1.33 1.33 0 0 0-.139-.593l-4.003-8.077c-.223-.452-.674-.733-1.175-.733h-5.6l2.814 10.41a1.32 1.32 0 0 0 1.268.976h6.846zm-8.657 8.735V44.77h-21.18v1.404h21.18zM29.776 29.96l-1.056-3.91h-1.588a1.32 1.32 0 0 0-1.314 1.326v2.574h3.788c.057 0 .114.005.17.01zm-.093 12.47v-10.06c0-.044-.034-.078-.077-.078H4.87c-.043 0-.077.034-.077.078v9.983c0 .044.034.078.077.078h24.813zm11.054 7.488a1.16 1.16 0 0 0-.819.343 1.18 1.18 0 0 0 0 1.653 1.16 1.16 0 0 0 .819.343 1.16 1.16 0 0 0 .819-.343 1.18 1.18 0 0 0 0-1.653 1.16 1.16 0 0 0-.819-.343zm-32.157 0c-.64 0-1.16.524-1.16 1.17s.52 1.17 1.16 1.17h28.446c.64 0 1.16-.524 1.16-1.17s-.52-1.17-1.16-1.17H8.58zm0-16.223c-.64 0-1.16.524-1.16 1.17s.52 1.17 1.16 1.17h8.658c.64 0 1.16-.524 1.16-1.17s-.52-1.17-1.16-1.17H8.58zm0 3.744c-.64 0-1.16.524-1.16 1.17s.52 1.17 1.16 1.17h8.658c.64 0 1.16-.524 1.16-1.17s-.52-1.17-1.16-1.17H8.58zm-3.7 12.48a1.16 1.16 0 0 0-.819.343 1.18 1.18 0 0 0 0 1.653 1.16 1.16 0 0 0 .819.343 1.16 1.16 0 0 0 .819-.343 1.18 1.18 0 0 0 .34-.827c0-.31-.124-.6-.34-.827s-.513-.343-.82-.343z" fill="#000"/></g></g></svg>