<svg xmlns="http://www.w3.org/2000/svg" width="103" height="55" xmlns:v="https://vecta.io/nano"><g transform="matrix(-1 0 0 1 103 0)" fill="none" fill-rule="evenodd"><g fill="#ff3c35"><path d="M89.235 19.278l-7.44-15.04C80.97 2.572 79.29 1.52 77.45 1.52H42.92c-1.535 0-2.98.735-3.897 1.983L27.43 19.278l-6.686 8.742h73.64l-5.148-8.742z"/><path d="M62.978 3.503c.917-1.248 2.362-1.983 3.897-1.983H42.92c-1.535 0-2.98.735-3.897 1.983L27.43 19.278l-6.686 8.742H44.7l6.686-8.742L62.978 3.503z"/></g><g fill="#d5eaff" fill-rule="nonzero"><path d="M82.494 19.28l-5.407-10.93c-.22-.442-.663-.72-1.15-.72h-2.366l-3.663 3.04V23.91l3.663 2.133h12.522l-3.6-6.762z"/><path d="M73.573 19.28v6.762h-43.9l5.27-6.762L43.12 8.153a1.28 1.28 0 0 1 1.03-.525h29.423v11.65z"/></g><g fill="#ff3c35"><path d="M79.523 19.28H55.288l-5.152 5.235V40.61l5.152 2.308h24.235l5.082-5.477V26.603a1.68 1.68 0 0 0-.336-1.009l-4.746-6.315z"/><path d="M98.716 25.397l.973-1.194c-.343-2.776-2.68-4.925-5.5-4.925H79.523v23.638h20.2v-11.08l-1.018-.525v-5.916zm-66.74-6.117H14.275c-6.367 0-11.528 5.233-11.528 11.688v11.95H28.24l8.32-2.1V24.202l-4.585-4.924z"/></g><path d="M12.26 20.805c-6.367 0-9.514 3.707-9.514 10.16v8.33l28.34-1.056c-7.257-1.736-11.98-3.618-14.17-5.646-1.994-1.847-3.546-5.777-4.656-11.8z" fill-opacity=".2" fill="#000"/><path d="M43.014 7.102c-.25 0-.486.195-.637.525L35.4 18.44l7.698.84 5.3-11.65-5.365-.525z" fill="#bfd2e5" fill-rule="nonzero"/><path d="M55.29 19.28v23.638H28.242V26.16c0-.3.078-.6.227-.847l3.51-6.033h23.31z" fill="#ff3c35"/><g fill-rule="nonzero"><path d="M101.377 40.707v3.62a1.4 1.4 0 0 1-1.392 1.409H2.747c-.623 0-1.127-.51-1.127-1.142V40.44c0-.63.504-1.144 1.127-1.144h97.238c.77 0 1.392.63 1.392 1.41h0z" fill="#acacac"/><path d="M7.24 42.917c0 .964.092 1.905.26 2.82h29.883c.168-.915.26-1.857.26-2.82a15.59 15.59 0 0 0-.428-3.62H7.667a15.59 15.59 0 0 0-.428 3.62z" fill="#b8b2b8"/><ellipse fill="#736f7b" cx="22.441" cy="42.917" rx="10.18" ry="10.321"/><path d="M22.44 47.13c-2.29 0-4.155-1.9-4.155-4.212s1.864-4.212 4.155-4.212 4.155 1.9 4.155 4.212-1.864 4.212-4.155 4.212h0z" fill="#f9f7f8"/><ellipse fill="#736f7b" cx="84.605" cy="42.917" rx="10.18" ry="10.321"/><path d="M75.226 38.672c1.48-3.34 4.815-5.675 8.686-5.675a9.41 9.41 0 0 1 1.957.204c-3.166.55-5.795 2.67-7.07 5.538a9.58 9.58 0 0 0-.817 3.895 9.62 9.62 0 0 0 .247 2.182 9.56 9.56 0 0 0 7.299 7.185c-.523.1-1.065.137-1.616.137-4.506 0-8.28-3.152-9.26-7.388a9.61 9.61 0 0 1-.247-2.182 10.56 10.56 0 0 1 .037-.857 9.45 9.45 0 0 1 .784-3.039h0zM17.788 33.2c.672 0 1.237.8 1.867.922-3.166.55-2.5.005-3.775 2.874-.528 1.188-.247 4.25-.247 5.638a9.62 9.62 0 0 0 .247 2.182 9.56 9.56 0 0 0 7.299 7.185c-.523.1-1.065.137-1.616.137-4.506 0-8.28-3.152-9.26-7.388a9.61 9.61 0 0 1-.247-2.182 10.56 10.56 0 0 1 .037-.857 9.45 9.45 0 0 1 .784-3.039c1.48-3.34 1.04-5.47 4.9-5.47z" fill="#595959"/><path d="M84.605 47.13c-2.29 0-4.155-1.9-4.155-4.212s1.864-4.212 4.155-4.212 4.155 1.9 4.155 4.212-1.864 4.212-4.155 4.212z" fill="#f9f7f8"/><path d="M11.287 19.678v6.63c0 2.1-1.673 3.787-3.738 3.787H2.78c.364-5.02 3.856-9.157 8.507-10.417zM99.734 24.9v6.93h-3.62c-.954 0-1.73-.786-1.73-1.753v-4.13c0-.967.775-1.753 1.73-1.753h3.577a5.49 5.49 0 0 1 .044.707h0z" fill="#fedf30"/><path d="M101.294 38.158V25c0-3.95-3.173-7.16-7.073-7.16H90.2L87.8 13a1.5 1.5 0 0 0-2.025-.681c-.745.378-1.046 1.296-.672 2.05l1.713 3.458H83.45l-5-10.092c-.477-.964-1.435-1.563-2.5-1.563H44.1c-.88 0-1.718.426-2.242 1.14L34.13 17.837h-3.763l9.817-13.34a3.36 3.36 0 0 1 2.693-1.369h34.588c1.28 0 2.43.72 3.002 1.876l1.76 3.556a1.5 1.5 0 0 0 2.025.681c.745-.378 1.046-1.296.672-2.05l-1.76-3.555C82.076 1.44 79.892.074 77.464.074H42.877a6.38 6.38 0 0 0-5.113 2.599L26.604 17.84h-12.42c-7.2 0-13.056 5.93-13.056 13.22v7.3A2.68 2.68 0 0 0 0 40.536v4.157c0 1.473 1.183 2.67 2.638 2.67h8.834c.655 1.686 1.7 3.2 3.06 4.458 2.168 1.977 4.923 3.045 7.82 3.045.208 0 .417-.006.627-.017 4.715-.25 8.637-3.3 10.272-7.487h40.497c1.717 4.4 5.947 7.503 10.886 7.503s9.17-3.114 10.886-7.503h4.52c1.6 0 2.902-1.318 2.902-2.94v-3.62a2.94 2.94 0 0 0-1.646-2.645h0zm-3.018-7.756H96.16c-.123 0-.224-.102-.224-.226v-4.13c0-.125.1-.227.224-.227h2.117v4.583zm-.658-7.638h-1.46c-1.787 0-3.24 1.472-3.24 3.282v4.13c0 1.8 1.454 3.282 3.24 3.282h2.117v4.407h-3.102c-1.896-3.964-5.9-6.705-10.543-6.705a11.46 11.46 0 0 0-3.58.57V20.893h13.17c1.422 0 2.673.747 3.397 1.87h0zm-17.545-4.927H75.1v-8.6h.724l4.26 8.6zm-23.298 0v-8.6h15.298v8.6H56.775zM44.22 9.24h9.536v8.6H37.893l6.327-8.6zM32.9 37.865a11.81 11.81 0 0 0-3.229-4.108V26.25a.14.14 0 0 1 .019-.071l3.077-5.284h20.98v16.972H32.9zM9.682 21.978v4.42c0 1.247-1.002 2.262-2.234 2.262H4.432a10.18 10.18 0 0 1 5.25-6.682zm-6.664 22.33V40.92h7.823a12.06 12.06 0 0 0-.167 2.713c.012.227.03.45.055.675h-7.71zm19.8 7.5a8.57 8.57 0 0 1-6.268-2.248c-1.725-1.572-2.74-3.73-2.863-6.078-.183-3.546 1.738-6.836 4.895-8.383.75-.368 1.064-1.28.7-2.04a1.5 1.5 0 0 0-2.016-.71c-2.44 1.196-4.33 3.165-5.453 5.528-.022-.001-.044-.003-.067-.003h-7.6v-6.15h3.3c2.896 0 5.25-2.385 5.25-5.318v-5.392a9.94 9.94 0 0 1 1.486-.112h15.1l-2.173 3.733a3.23 3.23 0 0 0-.437 1.622v5.74a11.6 11.6 0 0 0-2.062-.61 1.51 1.51 0 0 0-1.769 1.209c-.16.828.375 1.63 1.194 1.8 3.92.77 6.804 4.133 7.013 8.175.25 4.844-3.438 8.992-8.222 9.246h0zM34 44.308a12.04 12.04 0 0 0 .055-1.915c-.026-.5-.083-1-.167-1.473H62.54a1.52 1.52 0 0 0 1.51-1.528c0-.844-.675-1.528-1.5-1.528h-5.765v-16.97h21.258V33.23c-1.68 1.166-3.05 2.764-3.944 4.635h-5.12a1.52 1.52 0 0 0-1.51 1.528c0 .844.675 1.528 1.5 1.528h4.143a12 12 0 0 0-.186 2.093c0 .438.025.87.07 1.295H34zm50.633 7.503c-4.8 0-8.688-3.947-8.688-8.798s3.898-8.798 8.688-8.798 8.688 3.947 8.688 8.798-3.897 8.798-8.688 8.798zm15.3-7.503h-3.656c.046-.426.07-.857.07-1.295a12 12 0 0 0-.186-2.093h3.77v3.388zM48.597 24.603h-1.084a1.52 1.52 0 0 0-1.51 1.528c0 .844.675 1.528 1.5 1.528h1.084a1.52 1.52 0 0 0 1.51-1.528c0-.844-.675-1.528-1.5-1.528zm32 17.212a1.16 1.16 0 0 1 1.152 1.166c0 1.418 1.14 2.572 2.542 2.572s2.542-1.154 2.542-2.572-1.14-2.572-2.542-2.572a1.16 1.16 0 0 1-1.152-1.166 1.16 1.16 0 0 1 1.152-1.166c2.672 0 4.846 2.2 4.846 4.904s-2.174 4.904-4.846 4.904-4.846-2.2-4.846-4.904a1.16 1.16 0 0 1 1.152-1.166zm-61.952 0a1.16 1.16 0 0 1 1.152 1.166c0 1.418 1.14 2.572 2.542 2.572s2.54-1.153 2.54-2.573-1.14-2.572-2.542-2.572a1.16 1.16 0 0 1-1.152-1.166 1.16 1.16 0 0 1 1.152-1.166c2.672 0 4.846 2.2 4.846 4.904S25 47.885 22.33 47.885s-4.846-2.2-4.846-4.904a1.16 1.16 0 0 1 1.152-1.166z" fill="#000"/></g></g></svg>