<svg xmlns="http://www.w3.org/2000/svg" width="62" height="71" fill-rule="nonzero" xmlns:v="https://vecta.io/nano"><path d="M5.935 69.943l9.127-9.172c2.623-2.636 2.623-6.926 0-9.562l-5.886-5.916 7.87-7.9-4.88-4.903-7.993 8.033c-2.623 2.636-2.623 6.926 0 9.562l5.886 5.916-9.005 9.05 4.88 4.903z" fill="#e2dfe2"/><path d="M2.693 66.92l7.523-7.528a2.21 2.21 0 0 0 0-3.12l-.23-.23-9.08 9.087 1.788 1.8zm3.17-15.105a6.76 6.76 0 0 1 0-9.542l8.015-8.016L12.1 32.48l-8.015 8.016a6.76 6.76 0 0 0 0 9.542l1.778 1.778z" fill="#cbcbcb"/><path d="M60.9 16.016l-7.147 7.144-4.02-4.017L56.87 12zM53.98 9.1l-7.147 7.144-4.02-4.017 7.147-7.144z" fill="#e2dfe2"/><path d="M51.787 6.92l-7.147 7.144-1.826-1.826 7.147-7.144zm6.9 6.905L51.55 20.97l-1.826-1.826L56.87 12z" fill="#cbcbcb"/><path fill="#e2dfe2" d="M57.8 24.1L29.127 52.76 8.274 31.916 36.947 3.254z"/><path fill="#cbcbcb" d="M42.237 8.543L13.563 37.205l-5.292-5.3L36.944 3.253z"/><path d="M59.4 25.64a2.2 2.2 0 0 0 0-3.122L38.482 1.704c-.866-.862-2.27-.862-3.136 0a2.2 2.2 0 0 0 0 3.122L56.253 25.64c.866.862 2.27.862 3.136 0h0zm-28.662 28.7a2.2 2.2 0 0 0 0-3.122L9.82 30.406c-.866-.862-2.27-.862-3.136 0a2.2 2.2 0 0 0 0 3.122L27.6 54.34c.866.862 2.27.862 3.136 0h0z" fill="#ff3c35"/><g fill="#000"><path d="M16 36.475a2.25 2.25 0 0 0-3.147 0 2.17 2.17 0 0 0 0 3.104l-6.157-6.073a2.17 2.17 0 0 1 0-3.104 2.25 2.25 0 0 1 3.147 0L16 36.475zM44.652 7.773a2.25 2.25 0 0 0-3.147 0 2.17 2.17 0 0 0 0 3.104l-6.157-6.073a2.17 2.17 0 0 1 0-3.104 2.25 2.25 0 0 1 3.147 0l6.157 6.073z" fill-opacity=".2"/><path d="M62 16.02a1.04 1.04 0 0 0-.305-.735l-4.02-4.018a1.04 1.04 0 0 0-1.471 0L52.92 14.55l-1.418-1.417 3.284-3.282a1.04 1.04 0 0 0 0-1.471l-4.02-4.018a1.04 1.04 0 0 0-1.471 0L46.01 7.644 39.316.952a3.23 3.23 0 0 0-2.3-.952 3.23 3.23 0 0 0-2.3.952 3.23 3.23 0 0 0-.953 2.299c0 .51.117 1 .337 1.443L9.78 29.003a3.24 3.24 0 0 0-1.444-.337 3.23 3.23 0 0 0-2.3.952c-1.268 1.268-1.268 3.33 0 4.598l1.507 1.507-4.107 4.104a7.74 7.74 0 0 0-2.281 5.511 7.74 7.74 0 0 0 2.281 5.511l5.177 5.173-2.14 2.138a1.04 1.04 0 1 0 1.471 1.471l2.875-2.873a1.04 1.04 0 0 0 0-1.471L4.91 49.378c-1.078-1.077-1.67-2.512-1.67-4.04s.594-2.963 1.67-4.04l4.107-4.104 3.428 3.426-3.984 3.983a1.04 1.04 0 0 0 0 1.471l5.912 5.908a5.72 5.72 0 0 1 0 8.08L5.94 68.49l-3.43-3.428 2.502-2.5a1.04 1.04 0 1 0-1.471-1.471L.305 64.326a1.04 1.04 0 0 0 0 1.471l4.9 4.898a1.04 1.04 0 0 0 .736.305c.266 0 .533-.102.736-.305l9.167-9.163c3.04-3.038 3.04-7.982 0-11.02l-5.177-5.173 3.248-3.247 12.98 12.973a3.23 3.23 0 0 0 2.3.952 3.23 3.23 0 0 0 3.253-3.251c0-.51-.117-1-.337-1.444l19.8-19.78a1.04 1.04 0 1 0-1.471-1.471L30.76 49.73 11.372 30.354l24.08-24.068 19.386 19.377-1.47 1.47a1.04 1.04 0 1 0 1.471 1.471l1.6-1.59a3.24 3.24 0 0 0 1.444.337 3.23 3.23 0 0 0 3.253-3.251 3.23 3.23 0 0 0-.953-2.299l-1.763-1.762 3.284-3.282a1.04 1.04 0 0 0 .305-.735zM30.023 51.937c.22.22.343.515.343.828s-.122.607-.343.828-.516.343-.83.343-.607-.122-.83-.343L7.508 32.745c-.457-.457-.457-1.2 0-1.656.22-.22.516-.343.83-.343s.607.122.83.343l20.858 20.848zM50.03 6.568l2.548 2.547-2.548 2.547-2.548-2.547 2.548-2.547zm8.672 18.36c-.22.22-.516.343-.83.343s-.607-.122-.83-.343L36.188 4.08c-.22-.22-.343-.515-.343-.828s.122-.607.343-.828a1.17 1.17 0 0 1 1.657 0L58.703 23.27c.457.457.457 1.2 0 1.656h0zm-1.763-6.36l-2.548-2.547 2.548-2.547 2.548 2.547-2.548 2.547z"/></g></svg>