<svg xmlns="http://www.w3.org/2000/svg" xmlns:xlink="http://www.w3.org/1999/xlink" width="95" height="65" xmlns:v="https://vecta.io/nano"><g fill="none" fill-rule="evenodd"><path d="M3.9 17.94c-1.378 0-2.498 1.132-2.498 2.512V36.9c0 1.38 1.12 2.512 2.498 2.512h4.485l3.44-9.59-3.36-11.884H3.9z" fill="#838383" fill-rule="nonzero"/><path d="M56.12 7.108H12.824c-2.377-.005-4.317 1.957-4.328 4.353l-.032 6.48-.08 17.517v13.085l40.232 3.406 41.605-3.385V29.877c0-2.396-1.95-4.353-4.328-4.353H74.59c-2.834 0-3.407.2-4.633-2.486l-4.97-10.885c-.99-2.174-2.67-5.046-7.604-5.046H56.12z" fill="#ff3c35"/><g fill-rule="nonzero"><path d="M16.036 48.542H7.013c-1.856 0-3.376 1.528-3.376 3.396s1.52 3.396 3.376 3.396H15.4c-.184-.783-.28-1.243-.28-2.438a11.9 11.9 0 0 1 .926-4.353zm34.312 0H31.9a12 12 0 0 1 .92 4.353c0 1.195-.095 1.655-.28 2.438h29.253c-.184-.783-.28-1.243-.28-2.438s.33-3.025.926-4.353h-12.09zm39.874.02l-11.937-.02a12.01 12.01 0 0 1 .926 4.353 8.63 8.63 0 0 1-.284 2.438l11.295.027c1.856 0 3.376-1.528 3.376-3.4a3.4 3.4 0 0 0-3.376-3.396h0z" fill="#acacac"/><path d="M23.96 42.2a10.71 10.71 0 0 0-9.78 6.34c-.594 1.327-.926 2.803-.926 4.353a10.63 10.63 0 0 0 .279 2.438c1.104 4.734 5.353 8.256 10.427 8.256s9.323-3.523 10.427-8.256a10.63 10.63 0 0 0 .279-2.438 10.61 10.61 0 0 0-.926-4.353c-1.667-3.734-5.42-6.34-9.78-6.34h0zm36.615 6.342c-.594 1.327-.926 2.803-.926 4.353a10.63 10.63 0 0 0 .279 2.438 10.71 10.71 0 0 0 10.427 8.256c5.074 0 9.323-3.523 10.427-8.256a10.63 10.63 0 0 0-.642-6.791c-1.672-3.734-5.42-6.34-9.786-6.34a10.71 10.71 0 0 0-9.78 6.34z" fill="#736f7b"/><path d="M33.742 48.542c-1.667-3.734-5.42-6.34-9.78-6.34a10.77 10.77 0 0 0-2.203.228c3.565.614 6.526 2.983 7.96 6.188.594 1.327.92 2.803.92 4.353a10.63 10.63 0 0 1-.279 2.438 10.73 10.73 0 0 1-8.22 8.03 10.83 10.83 0 0 0 1.819.153c5.074 0 9.323-3.523 10.427-8.256a10.63 10.63 0 0 0 .279-2.438 11.53 11.53 0 0 0-.042-.957c-.105-1.2-.4-2.343-.883-3.396h0zm46.4 0c-1.672-3.734-5.42-6.34-9.786-6.34a10.78 10.78 0 0 0-2.203.228c3.565.614 6.53 2.983 7.96 6.188.594 1.327.926 2.803.926 4.353a10.63 10.63 0 0 1-.284 2.438 10.72 10.72 0 0 1-8.219 8.029 10.83 10.83 0 0 0 1.819.153 10.71 10.71 0 0 0 10.706-10.693c0-.323-.01-.64-.042-.957-.105-1.195-.4-2.338-.878-3.4v-.005z" fill="#595959"/><path d="M85.894 25.524H80.83c2.382 0 4.328 1.957 4.328 4.353v2.242h5.064v-2.242c0-2.396-1.95-4.353-4.328-4.353zM85.158 39v9.54l5.064.01V40.3L85.158 39z" fill-opacity=".2" fill="#000"/><path fill="#595959" d="M5.535 17.94v21.473h2.87v-3.956l.058-17.517z"/><path d="M24 49.72c-1.744 0-3.154 1.422-3.154 3.173S22.255 56.07 24 56.07s3.154-1.422 3.154-3.177S25.742 49.72 24 49.72z" fill="#dcdbde"/><use xlink:href="#B" fill="#000"/><path d="M70.508 49.72c-1.744 0-3.154 1.422-3.154 3.173s1.41 3.177 3.154 3.177 3.154-1.422 3.154-3.177-1.41-3.173-3.154-3.173z" fill="#dcdbde"/><use xlink:href="#B" x="46.509" fill="#000"/><path d="M90.222 32.12h-9.23c-.626 0-1.51.592-.946 1.703l1.656 3.263c.32.63.526 1.174 1.136 1.333l7.383 1.893V32.12z" fill="#f7e365"/><path d="M55.412 15.427h-11c-1.4 0-2.54 1.28-2.54 2.83v5.902c0 1.544 1.14 2.814 2.54 2.814l14.934-.005c2.366 0 3.6-1.57 2.482-4.125l-2.65-5.4c-.894-2.057-1.288-2.026-3.765-2.026h0zm-23.116.001H18.392c-1.304 0-2.37 1.08-2.37 2.4v6.77c0 1.312 1.067 2.385 2.37 2.385h13.903c1.304 0 2.37-1.074 2.37-2.385v-6.77a2.39 2.39 0 0 0-2.37-2.39z" fill="#d5eaff"/><path d="M32.296 15.428h-5.442c1.304 0 2.37 1.08 2.37 2.4v6.77c0 1.312-1.067 2.385-2.37 2.385h5.442c1.304 0 2.37-1.074 2.37-2.385v-6.77a2.39 2.39 0 0 0-2.37-2.39zm26.88 2.025c-.894-2.057-1.288-2.026-3.765-2.026h-4.3c2.177.005 2.577.07 3.423 2.026l2.656 5.4c1.104 2.555-.116 4.125-2.487 4.125l-10.3.005 14.934-.005c2.366 0 3.6-1.57 2.482-4.125l-2.65-5.4z" fill="#bfd2e5"/><path d="M47.008 32.025h-4.664c-.774 0-1.402.632-1.402 1.412s.628 1.412 1.402 1.412h4.664c.774 0 1.402-.632 1.402-1.412s-.628-1.412-1.402-1.412zm44.616 15.34v-17.5c0-3.178-2.57-5.764-5.73-5.764H74.6l-.56.002c-.873.005-1.565.008-1.835-.136-.317-.17-.702-.953-.965-1.53l-4.968-10.883c-1.232-2.7-3.34-5.814-8.74-5.867v-1.44C57.523 1.9 55.623 0 53.287 0H17.33c-2.336 0-4.236 1.9-4.236 4.257v1.44h-.267c-3.154 0-5.72 2.58-5.733 5.758L7.07 16.53H3.9c-2.15 0-3.9 1.76-3.9 3.924V36.9c0 2.163 1.75 3.924 3.9 3.924h3.083v6.307c-2.62.016-4.75 2.166-4.75 4.806 0 2.65 2.143 4.807 4.778 4.807h5.47C14.097 61.537 18.63 65 23.96 65s9.864-3.463 11.477-8.256h23.44C60.5 61.537 65.025 65 70.356 65s9.862-3.462 11.476-8.253l8.4.024c2.635 0 4.778-2.16 4.778-4.812a4.82 4.82 0 0 0-3.376-4.593h0zm-2.804-8.87l-5.54-1.42a4.85 4.85 0 0 1-.22-.417l-.108-.215-1.478-2.913h7.346v4.965zM3.9 38a1.1 1.1 0 0 1-1.096-1.101V20.45A1.1 1.1 0 0 1 3.9 19.351h3.157L6.983 38H3.9zm3.113 15.92a1.99 1.99 0 0 1-1.974-1.984 1.99 1.99 0 0 1 1.974-1.984h5.203a12.08 12.08 0 0 0-.363 2.941 12.12 12.12 0 0 0 .047 1.027H7.013zm16.948 8.256c-5.13 0-9.304-4.164-9.304-9.283S18.83 43.6 23.96 43.6s9.304 4.164 9.304 9.283-4.174 9.283-9.304 9.283zm12.062-8.256a12.2 12.2 0 0 0 .047-1.027 12.08 12.08 0 0 0-.363-2.941h7.343c.774 0 1.402-.632 1.402-1.412s-.628-1.4-1.402-1.4h-8.443c-2.053-3.774-6.055-6.34-10.645-6.34s-8.593 2.567-10.645 6.34h-3.53V35.463l.1-23.996c.007-1.627 1.315-2.948 2.92-2.948h17.738c.774 0 1.402-.632 1.402-1.412s-.628-1.412-1.402-1.412H15.898v-1.44c0-.8.642-1.434 1.432-1.434h35.957c.8 0 1.432.643 1.432 1.434v1.44H36.876c-.774 0-1.402.632-1.402 1.412S36.1 8.52 36.876 8.52h20.508c4.068 0 5.4 2.18 6.33 4.224l4.97 10.884c1.457 3.195 2.696 3.322 5.363 3.3l.544-.002h11.306c1.613 0 2.926 1.32 2.926 2.94v.83h-7.826a2.6 2.6 0 0 0-2.185 1.209c-.45.74-.455 1.67-.01 2.547l1.753 3.457c.3.622.776 1.562 1.94 1.865l6.327 1.623v5.74l-7.818-.016c-2.052-3.775-6.055-6.343-10.646-6.343s-8.593 2.567-10.645 6.34H50.35c-.774 0-1.402.632-1.402 1.4a1.41 1.41 0 0 0 1.402 1.412h8.263a12.08 12.08 0 0 0-.363 2.941 12.21 12.21 0 0 0 .047 1.027H36.022zm34.333 8.256c-5.13 0-9.304-4.164-9.304-9.283s4.174-9.283 9.304-9.283 9.304 4.164 9.304 9.283-4.174 9.283-9.304 9.283zm19.87-8.23l-7.8-.022a12.15 12.15 0 0 0 .047-1.031c0-1.013-.127-1.996-.362-2.937l8.116.017a1.99 1.99 0 0 1 1.978 1.984c0 1.097-.885 2-1.97 2zM44.4 28.384l14.933-.005c1.667 0 2.987-.62 3.718-1.745.75-1.154.768-2.702.048-4.358l-.028-.06-2.636-5.36c-1.192-2.726-2.304-2.84-4.907-2.84H44.4c-2.174 0-3.942 1.903-3.942 4.24v5.902c0 2.33 1.768 4.225 3.943 4.225h0zm-1.138-10.128c0-.77.52-1.418 1.138-1.418h11.112c.8.001 1.553 0 1.764.105.053.027.218.184.605 1.074l.028.06 2.635 5.358c.307.72.368 1.336.162 1.653-.2.292-.703.467-1.372.467l-14.933.005c-.617 0-1.138-.642-1.138-1.402v-5.902zm-10.977-4.24H18.392c-2.08 0-3.774 1.706-3.774 3.802v6.77c0 2.093 1.693 3.797 3.774 3.797h13.903c2.08 0 3.774-1.703 3.774-3.797v-6.77c0-2.096-1.693-3.802-3.774-3.802zm.97 10.572c0 .528-.444.974-.97.974H18.392c-.525 0-.97-.446-.97-.974v-6.77a.99.99 0 0 1 .969-.979h13.903a.99.99 0 0 1 .969.979v6.77z" fill="#000"/></g></g><defs ><path id="B" d="M27.208 52.017c-.585 0-1.06.477-1.06 1.066 0 1.297-1.048 2.35-2.336 2.35s-2.336-1.055-2.336-2.35 1.048-2.35 2.336-2.35c.585 0 1.06-.477 1.06-1.066s-.474-1.066-1.06-1.066c-2.456 0-4.453 2.01-4.453 4.483s1.998 4.483 4.453 4.483 4.453-2.01 4.453-4.483c0-.59-.474-1.066-1.06-1.066z"/></defs></svg>