<svg xmlns="http://www.w3.org/2000/svg" xmlns:xlink="http://www.w3.org/1999/xlink" width="101" height="63" xmlns:v="https://vecta.io/nano"><g fill-rule="evenodd"><g fill="#ff3c35"><path d="M96.862 24.72l-16.327-2.716L72.63 1.49H53.66A3.16 3.16 0 0 0 50.5 4.647V23.6H1.496v22.09a3.16 3.16 0 0 0 3.162 3.156l93.265-.01a1.58 1.58 0 0 0 1.581-1.578V27.83c0-1.542-1.117-2.86-2.642-3.112z"/><path d="M58.342 29.822h41.162V27.77c0-1.53-1.12-2.837-2.646-3.09l-16.293-2.686H58.342c-1.75 0-3.166 1.402-3.166 3.13v1.566c0 1.73 1.417 3.13 3.166 3.13z"/></g><g fill-rule="nonzero"><path d="M93.144 30.01v4.697c0 1.73 1.424 3.13 3.18 3.13h3.18V30.01h-6.36z" fill="#f7e365"/><path d="M61.508 21.994h18.918L74.97 7.828H58.356v11.018a3.15 3.15 0 0 0 3.153 3.148z" fill="#d5eaff"/></g><path fill="#ff3c35" d="M1.496 23.672H50.5v6.337H1.496z"/><g fill-rule="nonzero"><path d="M83.76 34.67c-8.172 0-14.9 6.212-15.68 14.166l29.87-.003c.596 0 1.096-.343 1.364-.83-1.162-7.547-7.673-13.332-15.556-13.332z" fill="#cc302a"/><ellipse fill="#736f7b" cx="85.102" cy="50.419" rx="11.035" ry="11.09"/><use xlink:href="#B" fill="#595959"/><ellipse fill="#dcdbde" cx="83.699" cy="50.419" rx="4.769" ry="4.753"/><path d="M37.78 48.83c-.8-7.95-7.522-14.163-15.71-14.163S7.148 40.882 6.36 48.834l31.422-.003z" fill="#cc302a"/><ellipse fill="#736f7b" cx="22.07" cy="50.419" rx="11.035" ry="11.09"/><use xlink:href="#B" x="-61.546" fill="#595959"/><ellipse fill="#dcdbde" cx="21.977" cy="50.419" rx="4.769" ry="4.753"/></g><path d="M72.618 1.49H53.563c-1.7.05-3.063 1.414-3.063 3.097V6.15h23.94l-1.823-4.66z" fill="#ff3c35"/><g fill-rule="nonzero"><path d="M75.413 7.86l-1.195-.03-10.625.03c4.227 1.318 7.255 3.163 9.084 5.534s2.435 5.238 1.82 8.6h4.434L75.413 7.86z" fill="#bfd2e5"/><path d="M26.753 48.934c-.823 0-1.5.665-1.5 1.484 0 1.806-1.474 3.275-3.287 3.275S18.7 52.225 18.7 50.42s1.474-3.275 3.287-3.275c.823 0 1.5-.665 1.5-1.484a1.49 1.49 0 0 0-1.5-1.484c-3.455 0-6.266 2.8-6.266 6.244s2.8 6.244 6.266 6.244 6.266-2.8 6.266-6.244a1.49 1.49 0 0 0-1.5-1.484zm61.722 0c-.823 0-1.5.665-1.5 1.484 0 1.806-1.474 3.275-3.287 3.275s-3.287-1.47-3.287-3.275 1.474-3.275 3.287-3.275c.823 0 1.5-.665 1.5-1.484a1.49 1.49 0 0 0-1.5-1.484c-3.455 0-6.266 2.8-6.266 6.244s2.8 6.244 6.266 6.244 6.266-2.8 6.266-6.244a1.49 1.49 0 0 0-1.5-1.484zM97.12 23.28l-15.5-2.58L74.8 2.956h1a1.48 1.48 0 0 0 1.479-1.478A1.48 1.48 0 0 0 75.801 0H53.663c-2.56 0-4.642 2.08-4.642 4.638V22.12H1.48A1.48 1.48 0 0 0 0 23.6v22.12c0 2.558 2.083 4.638 4.642 4.638H9.5l-.003.102c0 6.914 5.63 12.54 12.55 12.54s12.55-5.625 12.55-12.54c0-.034-.002-.068-.003-.102h36.58c0 .034-.003.068-.003.102C71.17 57.374 76.8 63 83.72 63s12.55-5.625 12.55-12.54c0-.034-.002-.068-.003-.102h1.686c1.688 0 3.06-1.372 3.06-3.058V27.857c0-2.277-1.63-4.2-3.88-4.575zm.92 13.06h-1.683c-.928 0-1.683-.755-1.683-1.682v-3.262h3.366v4.944zM78.4 20.54H61.57c-.928 0-1.683-.755-1.683-1.682v-9.58h14.17L78.4 20.54zM22.036 60.043a9.6 9.6 0 0 1-9.59-9.582 9.6 9.6 0 0 1 9.59-9.582 9.6 9.6 0 0 1 9.59 9.582 9.6 9.6 0 0 1-9.59 9.582zm61.67 0a9.6 9.6 0 0 1-9.59-9.582 9.6 9.6 0 0 1 9.59-9.582 9.6 9.6 0 0 1 9.59 9.582 9.6 9.6 0 0 1-9.59 9.582zm14.232-12.64h-2.062c-1.37-5.44-6.306-9.48-12.17-9.48s-10.8 4.04-12.17 9.48h-37.33c-1.37-5.44-6.306-9.48-12.17-9.48s-10.8 4.04-12.17 9.48H4.642c-.928 0-1.683-.755-1.683-1.682V25.078h46.06V42.56a1.48 1.48 0 0 0 1.479 1.478 1.48 1.48 0 0 0 1.479-1.478V4.64c0-.927.755-1.682 1.683-1.682h17.96l1.295 3.364h-14.5A1.48 1.48 0 0 0 56.937 7.8v11.06c0 2.558 2.083 4.638 4.642 4.638h18.853l16.212 2.7c.815.136 1.407.833 1.407 1.66v.585h-4.846a1.48 1.48 0 0 0-1.479 1.478v4.74c0 2.558 2.083 4.638 4.642 4.638h1.683v8c0 .056-.046.102-.102.102zm-20.67-18.885h-18.93c-.815 0-1.476.668-1.476 1.5s.66 1.5 1.476 1.5h18.93c.815 0 1.476-.668 1.476-1.5s-.66-1.5-1.476-1.5zm9.533 0h-3.2a1.491 1.491 0 1 0 0 2.982h3.2a1.491 1.491 0 1 0 0-2.982zm-42.64 0H7.837c-.816 0-1.478.668-1.478 1.5s.662 1.5 1.478 1.5H44.16c.816 0 1.478-.668 1.478-1.5s-.66-1.5-1.477-1.5z" fill="#000"/></g></g><defs ><path id="B" d="M94.1 45.946c-1.666-3.677-5.42-6.245-9.778-6.245-.757 0-1.493.078-2.203.224 3.564.604 6.524 2.937 7.96 6.094a10.34 10.34 0 0 1 .92 4.286 10.32 10.32 0 0 1-.279 2.401c-.94 3.964-4.158 7.068-8.217 7.906a10.99 10.99 0 0 0 1.819.151c5.073 0 9.32-3.47 10.424-8.13a10.32 10.32 0 0 0 .279-2.401c0-.318-.016-.63-.042-.943a10.21 10.21 0 0 0-.883-3.344h0z"/></defs></svg>