<svg xmlns="http://www.w3.org/2000/svg" width="64" height="64" fill-rule="nonzero" xmlns:v="https://vecta.io/nano"><circle fill="#736f7b" cx="32.071" cy="32.071" r="31.08"/><path d="M32.037.99l-1.878.058c16.31.97 29.235 14.487 29.235 31.022S46.468 62.122 30.16 63.092c.622.037 1.247.058 1.878.058 17.183 0 31.113-13.915 31.113-31.08S49.22.99 32.037.99z" fill="#595959"/><circle fill="#ff3c35" cx="32.071" cy="32.071" r="18.336"/><circle fill="#dcdbde" cx="32.071" cy="32.071" r="14.513"/><path d="M32.042 17.558a14.7 14.7 0 0 0-1.882.121c7.142.92 12.66 7.014 12.66 14.392s-5.518 13.47-12.66 14.392a14.7 14.7 0 0 0 1.882.121c8.032 0 14.542-6.498 14.542-14.513s-6.51-14.513-14.542-14.513z" fill="#d9d9d9"/><circle fill="#8c818f" cx="32" cy="32" r="3.823"/><g fill="#dcdbde"><circle cx="32" cy="23.08" r="1.699"/><circle cx="38.23" cy="25.77" r="1.699"/><circle cx="40.92" cy="32" r="1.699"/><circle cx="38.23" cy="38.23" r="1.699"/><circle cx="32" cy="40.92" r="1.699"/><circle cx="25.77" cy="38.23" r="1.699"/><circle cx="23.08" cy="32" r="1.699"/><circle cx="25.77" cy="25.77" r="1.699"/></g><path d="M32 51.242c10.6 0 19.242-8.632 19.242-19.242S42.6 12.758 32 12.758 12.758 21.4 12.758 32 21.4 51.242 32 51.242zm0-36.6a17.39 17.39 0 0 1 17.367 17.367c0 9.577-7.79 17.368-17.367 17.368S14.633 41.576 14.633 32 22.424 14.633 32 14.633zm0 32.792c2.25 0 4.42-.474 6.45-1.4a.94.94 0 0 0 .459-1.244.94.94 0 0 0-1.244-.459c-1.78.82-3.687 1.237-5.664 1.237A13.57 13.57 0 0 1 18.451 32 13.57 13.57 0 0 1 32 18.45 13.57 13.57 0 0 1 45.55 32a13.5 13.5 0 0 1-5.012 10.522.94.94 0 0 0-.137 1.319.94.94 0 0 0 1.319.137A15.37 15.37 0 0 0 47.424 32c0-8.504-6.92-15.423-15.423-15.423S16.576 23.496 16.576 32 23.495 47.424 32 47.424h0zM36.77 32c0-2.63-2.14-4.77-4.77-4.77s-4.77 2.14-4.77 4.77 2.14 4.77 4.77 4.77 4.77-2.14 4.77-4.77zM32 34.894A2.9 2.9 0 0 1 29.106 32 2.9 2.9 0 0 1 32 29.106 2.9 2.9 0 0 1 34.894 32 2.9 2.9 0 0 1 32 34.894zm31.977-1.734L64 32a31.79 31.79 0 0 0-9.373-22.627A31.79 31.79 0 0 0 32 0c-5.6 0-11.1 1.468-15.938 4.245a.94.94 0 0 0-.345 1.28.94.94 0 0 0 1.28.345c1.035-.595 2.104-1.126 3.2-1.592l1.02 2.7a.92.92 0 0 0 1.182.533.92.92 0 0 0 .534-1.183L21.906 3.6A30.21 30.21 0 0 1 32 1.875l.2.002-.102 2.718c-.02.512.38.942.892.96a.84.84 0 0 0 .035.001.93.93 0 0 0 .926-.892l.102-2.72c3.3.22 6.496.968 9.5 2.208l-1.127 2.5c-.2.467-.003 1.016.464 1.226a.92.92 0 0 0 .38.082c.353 0 .7-.203.845-.546l1.127-2.497c2.956 1.446 5.684 3.386 8.08 5.78l.135.138-2 1.855c-.375.348-.397.935-.05 1.3.183.197.43.297.68.297.226 0 .452-.082.63-.247l2-1.857a30.22 30.22 0 0 1 5.15 8.275l-2.57.973c-.48.18-.72.716-.54 1.195a.93.93 0 0 0 .867.6.94.94 0 0 0 .328-.06l2.57-.972A30.17 30.17 0 0 1 62.125 32l-.002.192-2.407-.1a.94.94 0 0 0-.972.902.94.94 0 0 0 .902.972l2.4.1c-.225 3.348-.997 6.6-2.272 9.62-.01-.005-.018-.01-.028-.014l-3-1.353a.92.92 0 0 0-1.214.459.92.92 0 0 0 .459 1.214l3 1.353c.007.003.013.005.02.008-1.44 2.906-3.358 5.6-5.718 7.95l-.33.323-2.195-2.366a.92.92 0 0 0-1.296-.049.92.92 0 0 0-.049 1.297l2.187 2.358a29.94 29.94 0 0 1-8.393 5.107l-1.1-2.932a.92.92 0 0 0-1.183-.534.92.92 0 0 0-.533 1.183l1.103 2.915c-3.024 1-6.223 1.522-9.502 1.522a24.76 24.76 0 0 1-.545-.007l.112-2.986a.92.92 0 0 0-.882-.951.92.92 0 0 0-.951.883l-.1 2.968c-3.3-.255-6.473-1.04-9.45-2.3L21.36 57.1a.92.92 0 0 0-.459-1.214.92.92 0 0 0-1.214.459l-1.177 2.6c-2.852-1.43-5.486-3.327-7.808-5.65l-.302-.3 2.02-1.874a.92.92 0 0 0 .049-1.297.92.92 0 0 0-1.297-.049L9.155 51.64a29.95 29.95 0 0 1-5.05-8.226l2.53-.957a.92.92 0 0 0 .534-1.183.92.92 0 0 0-1.183-.534l-2.523.954C2.42 38.614 1.875 35.35 1.875 32l.003-.2 2.665.1a.82.82 0 0 0 .035.001.92.92 0 0 0 .916-.883.92.92 0 0 0-.882-.951l-2.668-.1c.213-3.252.94-6.396 2.17-9.4L6.58 21.69c.123.055.25.08.377.08a.92.92 0 0 0 .378-1.754L4.863 18.9l.228-.468c1.432-2.837 3.332-5.452 5.584-7.714l1.883 2.03a.91.91 0 0 0 .673.293.91.91 0 0 0 .624-.245.92.92 0 0 0 .049-1.297L12 9.47c.547-.486 1.1-.955 1.7-1.4a.94.94 0 0 0 .174-1.314.94.94 0 0 0-1.314-.174 32.3 32.3 0 0 0-9.141 11.017A31.64 31.64 0 0 0 0 32a31.79 31.79 0 0 0 9.372 22.627A31.79 31.79 0 0 0 32 64a31.79 31.79 0 0 0 22.627-9.373 31.76 31.76 0 0 0 9.347-21.39c.001-.012.003-.025.003-.037s-.001-.025-.001-.038h0zM34.633 23.1c0-1.452-1.18-2.634-2.633-2.634s-2.634 1.18-2.634 2.634 1.18 2.633 2.634 2.633 2.633-1.18 2.633-2.633zm-3.392 0a.76.76 0 0 1 .759-.759.76.76 0 0 1 .758.759.76.76 0 0 1-.758.758.76.76 0 0 1-.759-.758h0zm5.197.748a2.62 2.62 0 0 0 0 3.724c.513.513 1.188.77 1.862.77s1.35-.257 1.862-.77a2.62 2.62 0 0 0 0-3.724c-1.026-1.027-2.697-1.027-3.724 0zm2.4 2.398a.76.76 0 0 1-1.073 0c-.143-.143-.222-.334-.222-.536a.76.76 0 0 1 .222-.536c.142-.143.342-.222.536-.222s.388.074.536.222a.74.74 0 0 1 .222.536.76.76 0 0 1-.222.536zM38.276 32c0 1.452 1.18 2.633 2.633 2.633s2.633-1.18 2.633-2.633-1.18-2.634-2.633-2.634-2.633 1.18-2.633 2.634h0zm2.633-.76a.76.76 0 0 1 .758.759.76.76 0 0 1-.758.758.76.76 0 0 1-.758-.758.76.76 0 0 1 .758-.759h0zm-2.61 9.692c.674 0 1.35-.257 1.862-.77a2.62 2.62 0 0 0 0-3.724c-1.027-1.027-2.697-1.027-3.724 0a2.62 2.62 0 0 0 0 3.724c.513.513 1.188.77 1.862.77zm-.536-3.168c.148-.148.342-.222.536-.222s.388.074.536.222a.74.74 0 0 1 .222.536.76.76 0 0 1-1.295.536c-.143-.143-.222-.334-.222-.536a.76.76 0 0 1 .222-.536zM29.367 40.9c0 1.452 1.18 2.633 2.634 2.633s2.633-1.18 2.633-2.633-1.18-2.634-2.633-2.634-2.634 1.18-2.634 2.634zm3.392 0a.76.76 0 0 1-.758.758.76.76 0 0 1-.759-.758.76.76 0 0 1 .759-.759.76.76 0 0 1 .758.759zm-7.06.023a2.62 2.62 0 0 0 1.862-.77c.497-.496.77-1.16.77-1.862a2.62 2.62 0 0 0-.77-1.862c-.496-.497-1.16-.77-1.862-.77a2.62 2.62 0 0 0-1.862.77c-1.027 1.027-1.027 2.698 0 3.724a2.62 2.62 0 0 0 1.862.77zm-.536-3.17c.143-.143.334-.222.536-.222a.76.76 0 0 1 .536.222c.143.142.222.334.222.536a.76.76 0 0 1-.222.536c-.142.143-.334.222-.536.222a.76.76 0 0 1-.536-1.294h0zM20.457 32c0 1.452 1.18 2.633 2.633 2.633s2.634-1.18 2.634-2.633-1.18-2.634-2.634-2.634-2.633 1.18-2.633 2.634h0zm2.634-.76a.76.76 0 0 1 .758.759.76.76 0 0 1-.758.758.76.76 0 0 1-.758-.758.76.76 0 0 1 .758-.759h0zm.747-7.402c-1.027 1.027-1.027 2.697 0 3.724a2.62 2.62 0 0 0 3.724 0c.497-.496.77-1.16.77-1.862a2.62 2.62 0 0 0-.77-1.862c-.496-.497-1.16-.77-1.862-.77a2.62 2.62 0 0 0-1.862.77h0zm2.62 1.862c0 .203-.08.393-.222.536s-.334.222-.536.222a.76.76 0 0 1-.536-1.295c.143-.143.334-.222.536-.222a.76.76 0 0 1 .536.222c.143.142.222.334.222.536z" fill="#000"/></svg>