<svg xmlns="http://www.w3.org/2000/svg" xmlns:xlink="http://www.w3.org/1999/xlink" width="94" height="65" xmlns:v="https://vecta.io/nano"><g fill="none" fill-rule="evenodd"><g fill-rule="nonzero"><path d="M2.85 44.99h53.622v-33.21c0-.357-.29-.648-.644-.648H2.85c-.355 0-.644.3-.644.648V44.34c0 .357.29.648.644.648zm4.415-5.92h44.15a.83.83 0 1 1 0 1.665H7.266a.83.83 0 1 1 0-1.665zm44.15-4.255H7.266a.83.83 0 1 1 0-1.665h44.15a.83.83 0 1 1 0 1.665zm0-5.92H7.266a.83.83 0 1 1 0-1.665h44.15a.83.83 0 1 1 0 1.665zm0-5.92H7.266a.83.83 0 1 1 0-1.665h44.15a.83.83 0 1 1 0 1.665zm0-5.92H7.266a.83.83 0 1 1 0-1.665h44.15a.83.83 0 1 1 0 1.665z" fill="#dcdbde"/><g fill="#000"><use xlink:href="#B"/><use xlink:href="#B" y="5.92"/><use xlink:href="#B" y="11.842"/><use xlink:href="#B" y="17.762"/><use xlink:href="#B" y="23.683"/></g></g><path d="M91.793 34.134l-.308-.8H76.433c-2.89 0-5.243-2.365-5.243-5.273v-7.4a.83.83 0 0 1 .828-.833h14.306l-.383-.993a5.09 5.09 0 0 0-4.722-3.263H69.075c-1.166 0-2.115.955-2.115 2.128v27.29h8.002c4.815 0 8.928 3.617 9.57 8.415l.075.56.555-.085c.037-.006.07-.008.103-.008h5.887c.355 0 .644-.3.644-.648v-5.088h-2.115a2.31 2.31 0 0 1-2.299-2.313v-1.48a2.31 2.31 0 0 1 2.299-2.313h2.115v-7.895z" fill="#ff3c35"/><g fill-rule="nonzero"><path d="M92.2 41.08v-6.202l-.4-1.638h-7.174c1.083 6.573-2.76 14.5-2.76 14.5s2.676 3.77 3 5.827l.093.6h6.417c.448 0 .812-.366.812-.817V41.08zM81.288 20.25h5.1l-.52-1.22-.017-.037.004.006c-.842-2.206-3.408-5.398-7.584-4.058 1.174 1.647 2.52 3.432 3.016 5.3z" fill="#000" fill-opacity=".2"/><path d="M89.125 43.93v2.302a.15.15 0 0 0 .143.144H91.7v-2.6h-2.432a.15.15 0 0 0-.143.144z" fill="#f7e365"/><path d="M72.845 28.06c0 1.99 1.61 3.608 3.587 3.608h14.416l-3.9-10.176H72.845v6.568z" fill="#bfd2e5"/><path d="M74.96 46.653c-4.412 0-8.002 3.6-8.002 8.048s3.6 8.048 8.002 8.048 8.002-3.6 8.002-8.048-3.6-8.048-8.002-8.048zm3.77 8.05c0 2.09-1.692 3.793-3.77 3.793s-3.77-1.7-3.77-3.793 1.692-3.793 3.77-3.793c.36 0 .665.235.778.56 1.2.292 2.146 1.243 2.437 2.45a.83.83 0 0 1 .556.783z" fill="#736f7b"/><use xlink:href="#C" fill="#595959"/><use xlink:href="#D" fill="#dcdbde"/><path d="M68.368 47.614l1.02-.96H33.442l1.02.96c1.62 1.526 2.677 3.577 2.974 5.775l.065.48h2.785v-.648c0-2.09 1.692-3.793 3.77-3.793h8.83c2.08 0 3.77 1.7 3.77 3.793v.648h8.672l.065-.48c.297-2.198 1.353-4.25 2.974-5.775z" fill="#736f7b"/><path d="M65.303 17.698l.002-.093v-.555H58.13V45h7.174zM52.886 51.095h-8.83c-1.166 0-2.116.955-2.116 2.128v2.96c0 1.173.95 2.128 2.116 2.128h8.83c1.166 0 2.115-.955 2.115-2.128v-2.96c0-1.174-.95-2.128-2.115-2.128zM44.7 54.703c0-.216.1-.436.245-.6a.82.82 0 0 1 .583-.243c.215 0 .433.1.586.246s.242.37.242.586-.1.436-.245.6a.82.82 0 0 1-.583.243c-.215 0-.433-.1-.586-.246s-.242-.37-.242-.586z" fill="#a7a5ac"/><use xlink:href="#E" fill="#736f7b"/><use xlink:href="#C" x="-47.184" y="0.001" fill="#595959"/><use xlink:href="#D" x="-47.093" fill="#dcdbde"/><use xlink:href="#E" x="-17.66" fill="#736f7b"/><use xlink:href="#C" x="-64.625" y="0.001" fill="#595959"/><use xlink:href="#D" x="-64.752" fill="#dcdbde"/><path d="M84.374 28.48l-.032-.222c-.567-2.8-1.725-5.445-3.557-7.627l-8.828-.147-.122 7.44c-.048 2.91 2.586 5.32 5.872 5.375l7.047.124c.163.003-.245-3.922-.38-4.945z" fill="#d5eaff"/><path d="M94 33.98v19.242c0 1.582-1.28 2.868-2.85 2.868h-5.887a1.24 1.24 0 0 1-.186-.015c-.67 5.016-4.95 8.896-10.116 8.896s-9.437-3.872-10.114-8.88H57.21v.093c0 2.398-1.94 4.348-4.323 4.348h-8.83c-2.384 0-4.323-1.95-4.323-4.348V56.1h-1.75c-.677 5.01-4.952 8.88-10.114 8.88-3.766 0-7.06-2.063-8.83-5.123-1.77 3.06-5.064 5.123-8.83 5.123C4.58 64.97 0 60.364 0 54.702c0-2.953 1.247-5.62 3.24-7.493H2.85C1.278 47.21 0 45.923 0 44.34V11.778C0 10.196 1.28 8.9 2.85 8.9h52.98c1.573 0 2.85 1.286 2.85 2.868v3.053h1.656V6.216c0-.816-.316-1.582-.888-2.16l-1.65-1.66a1.39 1.39 0 0 1 0-1.961 1.37 1.37 0 0 1 1.95 0l1.65 1.66c1.095 1.1 1.698 2.564 1.698 4.12v8.615h2.734c.793-.907 1.954-1.48 3.245-1.48H81.22c2.986 0 5.7 1.884 6.782 4.685l5.907 15.447c.004.01.006.02.01.03.01.028.02.057.028.085.006.018.01.037.015.057l.017.072.01.074c.002.018.006.04.007.06.002.03.004.057.004.087 0 .01.002.022.002.033zm-2.76 19.242V48.69h-1.564c-1.573 0-2.85-1.286-2.85-2.868v-1.48c0-1.582 1.28-2.868 2.85-2.868h1.564v-7.236l-.134-.35H76.433c-3.195 0-5.795-2.614-5.795-5.828v-7.4c0-.766.618-1.388 1.38-1.388h13.5l-.092-.24c-.664-1.74-2.355-2.907-4.207-2.907H69.074a1.57 1.57 0 0 0-1.564 1.573v26.735h7.45c5.165 0 9.446 3.88 10.116 8.896a1.24 1.24 0 0 1 .186-.015h5.887c.05 0 .092-.04.092-.092zm0-7.308V44.25h-1.564c-.048 0-.092.044-.092.093v1.48c0 .048.044.093.092.093h1.564zm-1.196-14.802l-3.466-9.066H73.397v6.013c0 1.684 1.36 3.053 3.035 3.053h13.613zm-7.634 23.6c0-4.132-3.343-7.493-7.45-7.493s-7.45 3.362-7.45 7.493 3.343 7.493 7.45 7.493 7.45-3.362 7.45-7.493zM67.99 47.21H34.84a10.27 10.27 0 0 1 3.144 6.106h1.75v-.093c0-2.398 1.94-4.348 4.323-4.348h8.83c2.384 0 4.323 1.95 4.323 4.348v.093h7.638c.324-2.396 1.47-4.53 3.144-6.106zm-3.24-29.51c0-.03.002-.06.002-.093H58.68v26.828h6.07V17.698zm-8.83 26.735V11.778c0-.052-.04-.093-.092-.093H2.85c-.052 0-.092.04-.092.093V44.34c0 .052.04.093.092.093h53.07zm-1.472 11.75v-2.96a1.57 1.57 0 0 0-1.564-1.573h-8.83a1.57 1.57 0 0 0-1.564 1.573v2.96a1.57 1.57 0 0 0 1.564 1.573h8.83a1.57 1.57 0 0 0 1.564-1.573zm-19.13-1.48c0-4.132-3.343-7.493-7.45-7.493s-7.45 3.362-7.45 7.493 3.343 7.493 7.45 7.493 7.45-3.362 7.45-7.493zM20.9 47.21h-3.72a10.3 10.3 0 0 1 1.86 2.348 10.31 10.31 0 0 1 1.86-2.348zm-3.24 7.493c0-4.132-3.343-7.493-7.45-7.493s-7.45 3.362-7.45 7.493 3.343 7.493 7.45 7.493 7.45-3.362 7.45-7.493zm58.865 0a1.57 1.57 0 0 1-1.564 1.573 1.57 1.57 0 1 1 0-3.145c.762 0 1.38-.622 1.38-1.388s-.618-1.388-1.38-1.388c-2.384 0-4.323 1.95-4.323 4.348s1.94 4.348 4.323 4.348 4.323-1.95 4.323-4.348c0-.766-.618-1.388-1.38-1.388s-1.38.622-1.38 1.388zm-30.996-1.388a1.38 1.38 0 0 0-.975.407c-.258.257-.405.616-.405.98s.147.723.405.98a1.38 1.38 0 0 0 1.95 0c.258-.257.405-.616.405-.98s-.147-.723-.405-.98a1.38 1.38 0 0 0-.975-.407zm-16.096 1.388a1.57 1.57 0 0 1-1.564 1.573 1.57 1.57 0 1 1 0-3.145c.762 0 1.38-.622 1.38-1.388s-.618-1.388-1.38-1.388c-2.384 0-4.323 1.95-4.323 4.348s1.94 4.348 4.323 4.348 4.323-1.95 4.323-4.348c0-.766-.618-1.388-1.38-1.388s-1.38.622-1.38 1.388zm-17.66 0a1.57 1.57 0 0 1-1.564 1.573 1.57 1.57 0 1 1 0-3.145c.762 0 1.38-.622 1.38-1.388s-.618-1.388-1.38-1.388c-2.384 0-4.323 1.95-4.323 4.348s1.94 4.348 4.323 4.348 4.323-1.95 4.323-4.348c0-.766-.618-1.388-1.38-1.388s-1.38.622-1.38 1.388z" fill="#000"/></g></g><defs ><path id="B" d="M51.415 14.83c.762 0 1.38.622 1.38 1.388s-.618 1.388-1.38 1.388H7.266c-.762 0-1.38-.622-1.38-1.388s.618-1.388 1.38-1.388h44.15z"/><path id="C" d="M82.982 50.452c-1.328-2.966-4.318-5.037-7.8-5.037a8.6 8.6 0 0 0-1.755.181c2.84.487 5.197 2.37 6.34 4.915.473 1.054.733 2.227.733 3.457a8.42 8.42 0 0 1-.222 1.937c-.75 3.197-3.313 5.7-6.546 6.377a8.65 8.65 0 0 0 1.449.122c4.04 0 7.425-2.798 8.305-6.558a8.42 8.42 0 0 0 .222-1.937c0-.256-.013-.508-.034-.76a8.32 8.32 0 0 0-.704-2.697h0z"/><path id="D" d="M75.74 51.47a3.28 3.28 0 0 0-.778-.097c-1.826 0-3.31 1.494-3.31 3.33s1.485 3.33 3.31 3.33 3.31-1.494 3.31-3.33c0-.27-.036-.53-.096-.783-.29-1.208-1.236-2.158-2.437-2.45z"/><path id="E" d="M27.87 46.654c-4.412 0-8.002 3.6-8.002 8.048s3.6 8.048 8.002 8.048 8.002-3.6 8.002-8.048-3.6-8.048-8.002-8.048zm3.77 8.05c0 2.09-1.692 3.793-3.77 3.793s-3.77-1.7-3.77-3.793 1.692-3.793 3.77-3.793c.36 0 .665.235.778.56 1.2.293 2.146 1.243 2.437 2.45a.83.83 0 0 1 .556.783z"/></defs></svg>