<svg xmlns="http://www.w3.org/2000/svg" width="94" height="81" fill-rule="evenodd" xmlns:v="https://vecta.io/nano"><path d="M87.817 78.628H6.096a4.43 4.43 0 0 1-4.427-4.427V27.788a4.43 4.43 0 0 1 4.427-4.427h81.722a4.43 4.43 0 0 1 4.427 4.427V74.2a4.43 4.43 0 0 1-4.428 4.427z" fill="#1d3461"/><g fill-rule="nonzero"><path d="M87.684 80.005H5.962A5.97 5.97 0 0 1 0 74.043V27.63a5.97 5.97 0 0 1 5.962-5.962h81.722a5.97 5.97 0 0 1 5.962 5.962v46.413a5.97 5.97 0 0 1-5.963 5.962zM5.962 24.74c-1.594 0-2.892 1.297-2.892 2.892v46.413c0 1.594 1.297 2.892 2.892 2.892h81.722c1.594 0 2.892-1.297 2.892-2.892V27.63c0-1.594-1.297-2.892-2.892-2.892H5.962z" fill="#000"/><g fill="#fff"><path d="M19.957 53.907H7.676c-.847 0-1.535-.688-1.535-1.535s.688-1.535 1.535-1.535h12.282c.847 0 1.535.688 1.535 1.535s-.688 1.535-1.535 1.535zm12.283 7.676H7.676c-.847 0-1.535-.688-1.535-1.535s.688-1.535 1.535-1.535H32.24c.847 0 1.535.688 1.535 1.535s-.688 1.535-1.535 1.535zm16.886 0h-9.2c-.847 0-1.535-.688-1.535-1.535s.688-1.535 1.535-1.535h9.2c.847 0 1.535.688 1.535 1.535s-.688 1.535-1.535 1.535zM12.282 69.26H7.676c-.847 0-1.535-.688-1.535-1.535S6.83 66.2 7.676 66.2h4.606c.847 0 1.535.688 1.535 1.535s-.688 1.535-1.535 1.535z"/><path d="M30.704 69.26h-7.676c-.847 0-1.535-.688-1.535-1.535s.688-1.535 1.535-1.535h7.676c.847 0 1.535.688 1.535 1.535s-.688 1.535-1.535 1.535zm7.676-15.353H26.1c-.847 0-1.535-.688-1.535-1.535s.688-1.535 1.535-1.535h12.28c.847 0 1.535.688 1.535 1.535s-.688 1.535-1.535 1.535zm18.422 0H44.52c-.847 0-1.535-.688-1.535-1.535s.688-1.535 1.535-1.535h12.282c.847 0 1.535.688 1.535 1.535s-.688 1.535-1.535 1.535zM15.35 72.33a1.52 1.52 0 0 1-.85-.258c-.705-.47-.896-1.423-.426-2.13l3.07-4.606c.47-.705 1.423-.897 2.13-.426s.896 1.423.426 2.13l-3.07 4.606c-.297.444-.783.684-1.28.684z"/></g><path d="M22.27 43.16H9.97c-1.267 0-2.294-1.027-2.294-2.294v-7.693c0-1.267 1.027-2.294 2.294-2.294h12.3c1.267 0 2.294 1.027 2.294 2.294v7.694c0 1.267-1.027 2.293-2.294 2.293z" fill="#fcad3a"/><g fill="#000"><path d="M22.27 44.696H9.97c-2.112 0-3.83-1.717-3.83-3.83v-7.693c0-2.112 1.717-3.83 3.83-3.83h12.3c2.112 0 3.83 1.717 3.83 3.83v7.694c0 2.112-1.717 3.828-3.83 3.828zm-12.3-12.28a.76.76 0 0 0-.758.758v7.694a.76.76 0 0 0 .758.758h12.3a.76.76 0 0 0 .758-.758v-7.694a.76.76 0 0 0-.758-.758H9.97z"/><path d="M18.422 43.16c-.847 0-1.535-.688-1.535-1.535v-9.21c0-.847.688-1.535 1.535-1.535s1.535.688 1.535 1.535v9.21c0 .848-.688 1.535-1.535 1.535z"/><path d="M16.887 38.555H9.21c-.847 0-1.535-.688-1.535-1.535s.688-1.535 1.535-1.535h7.676c.847 0 1.535.688 1.535 1.535s-.688 1.535-1.535 1.535z"/></g></g><path d="M75.787 40.1H56.24c-2.232 0-4.042-1.8-4.042-4.042V16.5c0-2.232 1.8-4.042 4.042-4.042h19.55c2.232 0 4.042 1.8 4.042 4.042v19.55c0 2.232-1.8 4.042-4.042 4.042z" fill="#ff3c35"/><g fill-rule="nonzero"><path d="M75.786 41.652H56.238c-3.09 0-5.604-2.514-5.604-5.604V16.5c0-3.09 2.514-5.604 5.604-5.604h19.548c3.09 0 5.604 2.514 5.604 5.604v19.548a5.61 5.61 0 0 1-5.604 5.604zM56.24 14.02c-1.368 0-2.48 1.113-2.48 2.48v19.548c0 1.368 1.113 2.48 2.48 2.48h19.548c1.368 0 2.48-1.113 2.48-2.48V16.5c0-1.368-1.113-2.48-2.48-2.48H56.24z" fill="#000"/><path d="M69.906 23.827c0-2.027-1.743-3.67-3.893-3.67s-3.893 1.644-3.893 3.67c0 1.596 1.087 2.94 2.596 3.447v5.12h2.596v-5.12c1.51-.506 2.595-1.85 2.595-3.447z" fill="#fff"/><path d="M73.69 14.02H58.337a1.56 1.56 0 0 1-1.561-1.561V8.733C56.776 4 60.626.15 65.36.15h1.31C71.4.15 75.25 4 75.25 8.733v3.725c-.001.862-.7 1.56-1.562 1.56zm-13.79-3.123h12.23V8.733a5.47 5.47 0 0 0-5.46-5.46h-1.31a5.47 5.47 0 0 0-5.46 5.46v2.163z" fill="#000"/></g></svg>