<svg xmlns="http://www.w3.org/2000/svg" width="53" height="51" fill-rule="evenodd" xmlns:v="https://vecta.io/nano"><g fill-rule="nonzero"><path fill="#fff" d="M43.17 44.88H31.2l-1.7-9.403H44.88z"/><g fill="#000"><path d="M43.17 45.734H31.202c-.413 0-.767-.295-.84-.702l-1.7-9.403a.85.85 0 0 1 .185-.7.86.86 0 0 1 .656-.307H44.88c.253 0 .494.112.656.307s.23.45.185.7L44 45.032c-.073.406-.427.702-.84.702zm-11.254-1.7h10.54l1.398-7.694h-13.34l1.4 7.694zm13.524 4.264H29.477c-.464 0-.84-.383-.84-.855s.376-.855.84-.855H44.76l2.378-11.292c.083-.394.426-.676.822-.676h4.2c.464 0 .84.383.84.855s-.376.855-.84.855h-3.52l-2.38 11.293c-.083.394-.426.676-.822.676z"/><path d="M34.62 45.734c-.405 0-.765-.3-.84-.702l-1.7-9.403a.86.86 0 0 1 .688-.994c.464-.094.9.224.994.688l1.7 9.403a.86.86 0 0 1-.688.994c-.052.01-.104.014-.154.014zm2.565 0c-.472 0-.855-.383-.855-.855v-9.403c0-.472.383-.855.855-.855s.855.383.855.855v9.403c0 .472-.383.855-.855.855zm2.565 0a.87.87 0 0 1-.154-.014c-.464-.085-.773-.53-.688-.994l1.7-9.403c.085-.465.53-.773.994-.688s.773.53.688.994l-1.7 9.403c-.075.413-.435.702-.84.702z"/><circle cx="32.056" cy="49.153" r="1.71"/><circle cx="43.169" cy="49.153" r="1.71"/></g></g><path d="M25.277 40.605c0-3.356 1.28-6.402 3.36-8.687l-6.728-.29-12.813.55c-4.55 0-8.24 3.365-8.24 7.517v7.748h26.382c-1.235-1.98-1.96-4.32-1.96-6.84z" fill="#ff3c35"/><g fill-rule="nonzero"><path d="M27.248 48.298H.843A.85.85 0 0 1 0 47.444v-7.748c0-4.616 4.078-8.372 9.09-8.372l12.788-.55c.024-.001.047-.001.07 0l6.734.29c.328.014.618.22.744.528s.063.662-.16.906a12.02 12.02 0 0 0-3.139 8.107c0 2.255.633 4.462 1.83 6.382.164.263.175.597.026.87s-.43.442-.74.442zm-25.562-1.7h24.127a13.76 13.76 0 0 1-1.369-5.984c0-2.85.876-5.6 2.495-7.905l-5.023-.215-12.788.548c-4.12.001-7.44 2.99-7.44 6.663v6.893z" fill="#000"/><path d="M28.637 32.75h0c-4.305 1.355-9.373 1.355-13.677 0h0v-7.532h13.677v7.532z" fill="#eac583"/><path d="M21.8 34.62c-2.436 0-4.873-.35-7.094-1.048a.86.86 0 0 1-.6-.821v-7.53a.86.86 0 0 1 .855-.86h13.678a.86.86 0 0 1 .855.86v7.53a.86.86 0 0 1-.6.821c-2.22.698-4.658 1.048-7.094 1.048zm-5.984-2.512a22.94 22.94 0 0 0 11.968 0v-6.025H15.814v6.025z" fill="#000"/><path d="M28.014 28.653h-12.52c-3.034 0-5.494-2.458-5.494-5.49V8.022C10 6.905 10.906 6 12.024 6h19.46c1.118 0 2.024.905 2.024 2.022v15.14c0 3.032-2.46 5.49-5.494 5.49z" fill="#ffdd95"/><path d="M22.5 25a4.61 4.61 0 0 1-1.13-.14l-1.84-.465a.71.71 0 0 1-.509-.858.7.7 0 0 1 .849-.515l1.84.465a3.25 3.25 0 0 0 1.58 0l1.84-.465a.7.7 0 0 1 .849.515.71.71 0 0 1-.509.858l-1.84.465a4.6 4.6 0 0 1-1.13.14zm5.78 4.492H15.744a6.35 6.35 0 0 1-6.341-6.337V7.994a2.87 2.87 0 0 1 2.867-2.865h19.484a2.87 2.87 0 0 1 2.867 2.865v15.16a6.35 6.35 0 0 1-6.341 6.338zm-16-22.683c-.654 0-1.186.532-1.186 1.185v15.16c0 2.568 2.1 4.657 4.66 4.657H28.28c2.57 0 4.66-2.1 4.66-4.657V7.994c0-.654-.532-1.185-1.186-1.185H12.27z" fill="#000"/></g><path d="M30.58 11.968H10.258v-7.55c0-1.967 1.57-3.562 3.505-3.562H36.33v5.27c0 3.227-2.574 5.844-5.75 5.844z" fill="#333"/><path d="M30.588 12.823H10.245a.85.85 0 0 1-.842-.855v-7.55C9.403 1.98 11.355 0 13.753 0h22.6a.85.85 0 0 1 .842.855v5.27c0 3.694-2.96 6.7-6.597 6.7zm-19.502-1.7h19.5c2.71 0 4.913-2.238 4.913-4.99V1.7H13.753c-1.47 0-2.666 1.214-2.666 2.707v6.696z" fill="#000" fill-rule="nonzero"/></svg>