<svg xmlns="http://www.w3.org/2000/svg" width="96" height="80" xmlns:v="https://vecta.io/nano"><style><![CDATA[.B{fill:#000}.C{fill-rule:nonzero}.D{fill:#ff3c35}]]></style><g fill="none" fill-rule="evenodd"><path d="M48.842 69.795H1.17V61.27c0-4.567 4.177-8.27 9.33-8.27l14.506-.605L39.512 53c5.153 0 9.33 3.703 9.33 8.27v8.524z" fill="#1d3461"/><g class="C"><path d="M48.842 70.736H1.17c-.526 0-.953-.42-.953-.94V61.27c0-5.08 4.613-9.2 10.284-9.2l14.466-.604c.027-.001.053-.001.08 0l14.508.605c5.63 0 10.24 4.13 10.24 9.21v8.524c.001.52-.427.94-.953.94zm-46.72-1.88H47.89V61.27c0-4.04-3.758-7.33-8.377-7.33l-14.506-.604-14.466.603c-4.66.001-8.417 3.29-8.417 7.33v7.584z" class="B"/><path d="M32.634 53.572h0c-4.802 1.48-10.454 1.48-15.255 0h0v-8.23h15.255v8.23z" fill="#eac583"/><path d="M25.006 55.615c-2.717 0-5.435-.382-7.912-1.145a.94.94 0 0 1-.669-.898v-8.23c0-.52.427-.94.953-.94h15.255c.526 0 .953.42.953.94v8.23a.94.94 0 0 1-.669.898c-2.477.763-5.195 1.145-7.912 1.145zm-6.674-2.746a26.1 26.1 0 0 0 13.348 0v-6.586H18.332v6.586z" class="B"/><path d="M32.115 49.105H17.896c-3.445 0-6.24-2.756-6.24-6.154V25.98c0-1.252 1.03-2.267 2.298-2.267h22.1c1.27 0 2.298 1.015 2.298 2.267v16.97c0 3.4-2.794 6.154-6.24 6.154z" fill="#ffdd95"/><path d="M32.115 50.045H17.897c-3.966 0-7.192-3.183-7.192-7.095V25.98c0-1.77 1.46-3.207 3.252-3.207h22.1c1.793 0 3.252 1.44 3.252 3.207v16.97c0 3.912-3.227 7.095-7.192 7.095zm-18.16-25.393c-.742 0-1.345.595-1.345 1.327v16.97c0 2.875 2.37 5.214 5.285 5.214h14.218c2.915 0 5.285-2.34 5.285-5.214V25.98c0-.732-.604-1.327-1.345-1.327h-22.1z" class="B"/><path fill="#feda38" d="M34.54 61.33h8.58v8.464h-8.58z"/><path d="M43.12 70.736h-8.58c-.526 0-.953-.42-.953-.94V61.33c0-.52.427-.94.953-.94h8.58c.526 0 .953.42.953.94v8.464c0 .52-.427.94-.953.94zm-7.627-1.88h6.674V62.27h-6.674v6.583z" class="B"/></g><path d="M11.658 26.533c0 5.194 5.976 9.405 13.348 9.405s13.348-4.2 13.348-9.405H11.658z" class="D"/><path d="M25.006 36.88c-7.886 0-14.302-4.64-14.302-10.345 0-.52.427-.94.953-.94h26.696c.526 0 .953.42.953.94 0 5.705-6.415 10.345-14.3 10.345zm-12.318-9.405C13.375 31.7 18.638 35 25.006 35s11.632-3.298 12.318-7.524H12.687zM25.006 46.12c-.518 0-1.035-.062-1.54-.186l-2.507-.618a.94.94 0 0 1-.694-1.141c.128-.504.646-.8 1.156-.684l2.506.618a4.51 4.51 0 0 0 2.153 0l2.506-.618c.5-.126 1.028.18 1.156.684a.94.94 0 0 1-.694 1.141l-2.506.618c-.503.125-1.02.186-1.54.186z" class="B C"/><path d="M38.227 26.85c0-6.468-4.155-11.915-9.805-13.536-1.117-.32-2.292-.492-3.505-.492-7.35 0-13.3 6.28-13.3 14.027h26.62z" class="D"/><g class="B C"><path d="M38.227 27.898h-26.62c-.525 0-.95-.42-.95-.935 0-8.25 6.397-14.963 14.26-14.963 1.278 0 2.547.178 3.772.53 6.176 1.772 10.49 7.708 10.49 14.434 0 .516-.426.935-.95.935zm-25.638-1.87h24.656c-.372-5.507-4.004-10.244-9.09-11.703a11.75 11.75 0 0 0-3.239-.454c-6.518 0-11.874 5.373-12.328 12.157z"/><path d="M30.092 27.08c-.157 0-.316-.038-.463-.12-.458-.252-.622-.82-.367-1.27.128-.23 2.956-5.457-1.25-11.278-.304-.42-.204-1.005.224-1.304s1.022-.2 1.326.22c4.926 6.817 1.5 13 1.362 13.272-.174.306-.498.48-.83.48zm-9.358.16a.95.95 0 0 1-.83-.48c-.148-.26-3.564-6.455 1.362-13.272a.96.96 0 0 1 1.326-.22c.428.3.528.883.224 1.304-4.237 5.864-1.283 11.222-1.252 11.276.256.45.092 1.02-.367 1.273a.97.97 0 0 1-.463.12z"/></g><path d="M52.992 12.93l-8.07 28.402c-.81 3.397.634 6.903 3.74 9.07l19.245 13.436 19.246-13.436c3.104-2.167 4.55-5.674 3.74-9.07l-8.07-28.402h-29.83z" fill="#333" class="C"/><path d="M67.504 64.646c-.26 0-.52-.077-.742-.233L47.57 51.008c-3.55-2.48-5.173-6.456-4.237-10.378l8.06-28.39c.156-.548.66-.927 1.238-.927h29.746c.576 0 1.083.38 1.238.927l8.047 28.338c.95 3.973-.674 7.95-4.224 10.43L68.246 64.413c-.222.156-.482.233-.742.233zm-13.9-50.794l-7.783 27.41c-.677 2.842.557 5.8 3.233 7.67l18.45 12.888 18.45-12.888c2.676-1.87 3.9-4.828 3.22-7.722l-7.77-27.36H53.605z" class="B C"/><path d="M94.37 79.192H40.63v-8.948c0-6.152 4.71-11.138 10.518-11.138L67.5 55.758l16.353 3.348c5.8 0 10.518 4.987 10.518 11.138v8.948z" fill="#1d3461"/><g class="C"><path d="M94.704 80h-54.41C39.58 80 39 79.435 39 78.74v-8.91c0-6.765 5.284-12.276 11.807-12.352l16.43-3.31c.173-.035.352-.035.525 0l16.43 3.31C90.716 57.552 96 63.063 96 69.828v8.91C96 79.435 95.42 80 94.704 80zM41.59 77.477h51.818v-7.65c0-5.42-4.196-9.83-9.353-9.83-.088 0-.176-.01-.262-.026L67.5 56.69l-16.293 3.282c-.086.017-.174.026-.262.026-5.157 0-9.353 4.4-9.353 9.83v7.65z" class="B"/><path d="M74.014 57.453h0c-4.1 2.05-8.928 2.05-13.03 0h0V46.06h13.03v11.392z" fill="#eac583"/><path d="M67.907 59.798c-2.412 0-4.824-.55-7.024-1.647a1.29 1.29 0 0 1-.712-1.152V45.732a1.29 1.29 0 0 1 1.289-1.288h12.893a1.29 1.29 0 0 1 1.289 1.288V57c0 .488-.276.934-.712 1.152-2.2 1.098-4.61 1.647-7.023 1.647zm-5.157-3.62a13.23 13.23 0 0 0 10.315 0V47.02H62.75v9.157z" class="B"/><path d="M72.378 48.485h-9.755c-5.85 0-10.594-4.735-10.594-10.575V16.84c0-1.714 1.39-3.102 3.108-3.102h24.727c1.717 0 3.108 1.39 3.108 3.102V37.9c0 5.84-4.743 10.575-10.594 10.575z" fill="#ffdd95"/><path d="M72.765 50.1H63.05c-6.526 0-11.835-5.3-11.835-11.814V17.3a4.38 4.38 0 0 1 4.379-4.371H80.22a4.38 4.38 0 0 1 4.379 4.371v20.986C84.6 44.8 79.29 50.1 72.765 50.1zM55.594 15.493c-1 0-1.81.812-1.81 1.808v20.986c0 5.1 4.157 9.25 9.267 9.25h9.716c5.1 0 9.267-4.15 9.267-9.25V17.3c0-.997-.813-1.808-1.81-1.808H55.594z" class="B"/><path fill="#feda38" d="M74.014 67.88h11.4v11.313h-11.4z"/><path d="M85.785 80H74.458c-.695 0-1.258-.56-1.258-1.25V67.51c0-.69.564-1.25 1.258-1.25h11.326c.695 0 1.258.56 1.258 1.25v11.24c0 .69-.564 1.25-1.258 1.25zm-10.068-2.498h8.81V68.76h-8.81v8.742z" class="B"/></g><path d="M85.414 20.202c0-8.943-5.592-16.473-13.196-18.714-1.503-.443-3.085-.68-4.718-.68-9.894 0-17.914 8.683-17.914 19.394h35.83z" class="D"/><path d="M85.767 21.818h-35.72a1.28 1.28 0 0 1-1.276-1.283C48.77 9.212 57.356 0 67.907 0c1.715 0 3.418.244 5.06.726 8.287 2.432 14.075 10.578 14.075 19.81a1.28 1.28 0 0 1-1.276 1.284zM51.364 19.25H84.45c-.5-7.558-5.373-14.06-12.196-16.06-1.41-.413-2.87-.623-4.346-.623-8.746 0-15.933 7.374-16.543 16.684z" class="B C"/><path d="M49.586 20.202c0 7.14 8.02 12.93 17.914 12.93s17.914-5.788 17.914-12.93h-35.83z" class="D"/><g class="B C"><path d="M67.907 34.747c-10.552 0-19.136-6.313-19.136-14.074a1.28 1.28 0 0 1 1.276-1.279h35.72a1.28 1.28 0 0 1 1.276 1.279c0 7.76-8.584 14.074-19.136 14.074zM51.425 21.953c.92 5.75 7.96 10.236 16.482 10.236S83.47 27.702 84.4 21.953H51.425z"/><path d="M74.5 21a1.19 1.19 0 0 1-.602-.163c-.596-.345-.8-1.124-.478-1.742.167-.316 3.848-7.483-1.628-15.464-.396-.577-.265-1.378.292-1.788a1.21 1.21 0 0 1 1.726.302c6.413 9.347 1.966 17.84 1.774 18.2a1.23 1.23 0 0 1-1.082.656zm-13.205 0a1.23 1.23 0 0 1-1.082-.657c-.193-.358-4.64-8.852 1.773-18.2.396-.576 1.17-.7 1.726-.302s.687 1.2.292 1.788c-5.516 8.04-1.67 15.388-1.63 15.46.334.62.12 1.4-.477 1.745a1.2 1.2 0 0 1-.602.163zm6.603 24.253a10.12 10.12 0 0 1-2.136-.227c-.06-.013-.118-.03-.175-.05l-2.155-.752c-.678-.236-1.006-.902-.732-1.488s1.045-.87 1.722-.633l2.065.72a7.11 7.11 0 0 0 2.818 0l2.065-.72c.677-.237 1.45.046 1.722.633s-.054 1.252-.732 1.488l-2.155.752c-.057.02-.115.036-.175.05a10.06 10.06 0 0 1-2.134.227z"/></g></g></svg>