<svg xmlns="http://www.w3.org/2000/svg" width="78" height="67" fill-rule="evenodd" xmlns:v="https://vecta.io/nano"><g stroke="#000" stroke-width="4"><path d="M76 24.18v35.508c0 1.215-.537 2.38-1.494 3.24s-2.255 1.342-3.61 1.342H7.103c-1.354 0-2.652-.482-3.61-1.342S2 60.902 2 59.687V24.18c0-1.215.537-2.38 1.494-3.24s2.255-1.342 3.61-1.342H30.07" fill="#1d3461"/><path d="M74.728 11.98c.772.365 1.266 1.138 1.272 1.99v11.674c-.137 10.66-5.203 20.658-13.73 27.1l-7.582 5.978a2.76 2.76 0 0 1-3.399 0l-7.582-5.978c-8.527-6.44-13.594-16.44-13.73-27.1V13.968c.006-.85.5-1.624 1.272-1.99l19.682-9.5c1.3-.626 2.816-.626 4.117 0l19.682 9.5z" fill="#ff3c35"/></g><circle fill="#fff" fill-rule="nonzero" cx="53.213" cy="26.14" r="11.506"/><path d="M50.916 31.33c-.336 0-.66-.137-.896-.383l-2.075-2.14c-.495-.5-.495-1.338 0-1.848a1.24 1.24 0 0 1 1.793 0l1.18 1.215 5.327-5.492a1.24 1.24 0 0 1 1.788.005c.493.51.495 1.332.005 1.843l-6.224 6.415c-.238.246-.56.383-.896.383z" fill="#ff3c35"/><path d="M29.032 52.805H8.746c-.7 0-1.286-.566-1.286-1.265s.576-1.265 1.286-1.265H29.03c.7 0 1.286.566 1.286 1.265s-.576 1.265-1.286 1.265zm-10.29 5.06H8.746c-.7 0-1.286-.566-1.286-1.265s.576-1.265 1.286-1.265h9.997c.7 0 1.286.566 1.286 1.265s-.576 1.265-1.286 1.265zm6.485-15.3l-3.526-1.708a1.3 1.3 0 0 1-.744-1.165v-1.34a5.22 5.22 0 0 0 .334-.415c.475-.654.845-1.375 1.096-2.14a1.08 1.08 0 0 0 .785-1.021v-1.43a1.05 1.05 0 0 0-.37-.793v-2.068s.438-3.218-4.06-3.218-4.06 3.218-4.06 3.218v2.068c-.233.2-.368.5-.37.793v1.43c.002.366.195.706.5.9a7.01 7.01 0 0 0 1.335 2.676v1.307c-.001.48-.27.918-.7 1.144l-3.293 1.74c-.947.496-1.54 1.463-1.543 2.518v1.158h16.244v-1.1a2.86 2.86 0 0 0-1.637-2.565z" fill="#fff" fill-rule="nonzero"/></svg>