<svg xmlns="http://www.w3.org/2000/svg" xmlns:xlink="http://www.w3.org/1999/xlink" width="78" height="78" xmlns:v="https://vecta.io/nano"><style><![CDATA[.B{fill-rule:nonzero}.C{fill:#fff}]]></style><defs><ellipse id="F" cx="39" cy="38.829" rx="39" ry="38.829"/><ellipse id="B" cx="39" cy="38.829" rx="39" ry="38.829"/><ellipse id="C" cx="39" cy="38.829" rx="39" ry="38.829"/><ellipse id="D" cx="39" cy="38.829" rx="39" ry="38.829"/><ellipse id="E" cx="39" cy="38.829" rx="39" ry="38.829"/></defs><g fill-rule="evenodd"><g fill="#f0f4f7" class="B"><ellipse cx="39" cy="38.829" rx="39" ry="38.829"/><ellipse id="F" cx="39" cy="38.829" rx="39" ry="38.829"/></g><mask id="G" class="C"><use xlink:href="#F"/></mask><path d="M56.365 16.865H22.442c-3.92 0-7.11 3.197-7.11 7.126v66.185c0 3.93 3.19 7.126 7.11 7.126h33.923c3.92 0 7.11-3.197 7.11-7.126V23.99c0-3.93-3.19-7.126-7.11-7.126z" fill="#1d3461" mask="url(#G)" transform="matrix(-1 0 0 1 78.80701 0)" class="B"/><mask id="H" class="C"><use xlink:href="#B"/></mask><path d="M39.626 90.176V23.99c0-3.93-3.23-7.126-7.2-7.126H15.25v80.438h17.176c3.97 0 7.2-3.197 7.2-7.126z" fill-opacity=".535" fill="#000" mask="url(#H)" transform="matrix(-1 0 0 1 54.87669 0)" class="B"/><mask id="I" class="C"><use xlink:href="#C"/></mask><path d="M55.896 21.74h-2.703v2.68c0 4.07-3.33 7.37-7.436 7.37H32.44c-4.107 0-7.436-3.3-7.436-7.37v-2.68h-2.703c-1.5 0-2.703 1.202-2.703 2.68v65.33c0 1.477 1.213 2.68 2.703 2.68h33.594c1.5 0 2.703-1.202 2.703-2.68V24.42c0-1.477-1.213-2.68-2.703-2.68z" mask="url(#I)" transform="matrix(-1 0 0 1 78.197636 0)" class="B C"/><mask id="J" class="C"><use xlink:href="#D"/></mask><path d="M39.1 89.748V24.42c0-1.477-1.213-2.68-2.703-2.68h-2.703v2.68c0 4.07-3.33 7.37-7.436 7.37H19.6v60.637h16.797c1.5 0 2.703-1.202 2.703-2.68h0z" fill-opacity=".133" fill="#d4d4d4" mask="url(#J)" transform="matrix(-1 0 0 1 58.697636 0)" class="B"/><mask id="K" class="C"><use xlink:href="#E"/></mask><path d="M25.946 50.81l.76-.55-.72-.98.03-.1 1.07-.38-.3-.89-1.06.37-.08-.03v-1.142h-.94v1.142l-.1.03-1.05-.37-.3.89 1.07.38.03.1-.72.98.76.55.74-1h.08l.74 1zm4.692 0l.76-.55-.72-.98.03-.1 1.07-.38-.3-.89-1.06.37-.08-.03v-1.142h-.94v1.142l-.1.03-1.05-.37-.3.89 1.07.38.03.1-.72.98.76.55.74-1h.08l.74 1zm4.692 0l.76-.55-.72-.98.03-.1 1.07-.38-.3-.89-1.06.37-.08-.03v-1.142h-.94v1.142l-.1.03-1.05-.37-.3.89 1.07.38.03.1-.72.98.76.55.74-1h.08l.74 1zm4.692 0l.76-.55-.72-.98.03-.1 1.07-.38-.3-.89-1.06.37-.08-.03v-1.142h-.94v1.142l-.1.03-1.05-.37-.3.89 1.07.38.03.1-.72.98.76.55.74-1h.08l.74 1zm4.692 0l.76-.55-.72-.98.03-.1 1.07-.38-.3-.89-1.06.37-.08-.03v-1.142h-.94v1.142l-.1.03-1.05-.37-.3.89 1.07.38.03.1-.72.98.76.55.74-1h.08l.74 1zm4.692 0l.76-.55-.72-.98.03-.1 1.07-.38-.3-.89-1.06.37-.08-.03v-1.142h-.94v1.142l-.1.03-1.05-.37-.3.89 1.07.38.03.1-.72.98.76.55.74-1h.08l.74 1zm4.692 0l.76-.55-.72-.98.03-.1 1.07-.38-.3-.89-1.06.37-.08-.03v-1.142h-.94v1.142l-.1.03-1.05-.37-.3.89 1.07.38.03.1-.72.98.76.55.74-1h.08l.74 1z" fill="#1d3461" mask="url(#K)" class="B"/></g></svg>