<svg xmlns="http://www.w3.org/2000/svg" width="78" height="78" fill="none" fill-rule="evenodd" xmlns:v="https://vecta.io/nano"><ellipse fill="#f0f4f7" cx="39" cy="38.829" rx="39" ry="38.829"/><g transform="matrix(-1 0 0 1 65.553192 10.37234)"><path d="M49.29 27.683V20.4a5.47 5.47 0 0 0-5.477-5.463H30.45c-.688 0-1.242.56-1.24 1.247a7.82 7.82 0 0 0 .378 2.394H3.723c-2.046 0-3.76 1.67-3.723 3.7a3.65 3.65 0 0 0 3.65 3.573h3.65v21.85h36.51a5.47 5.47 0 0 0 5.477-5.463h3.872c.886 0 1.604-.717 1.604-1.6V29.283c0-.884-.718-1.6-1.604-1.6H49.29z" fill="#f4b991" fill-rule="nonzero"/><path d="M35 0H11.893c-2.67 0-4.84 2.177-4.84 4.852v45.062c0 2.675 2.17 4.852 4.84 4.852H35c2.67 0 4.84-2.177 4.84-4.852V4.852C39.83 2.177 37.66 0 35 0z" fill="#1d3461"/><g fill-rule="nonzero"><path d="M40.245 49.914V4.852c0-2.675-2.2-4.852-4.9-4.852H23.65v54.766h11.695c2.702 0 4.9-2.177 4.9-4.852z" fill-opacity=".535" fill="#000"/><path d="M35.085 3.32h-1.84v1.824c0 2.772-2.267 5.02-5.063 5.02h-9.066c-2.796 0-5.063-2.247-5.063-5.02V3.32h-1.84c-1.015 0-1.84.818-1.84 1.824v44.48c0 1.006.826 1.824 1.84 1.824h22.872c1.015 0 1.84-.818 1.84-1.824V5.143c0-1.006-.826-1.824-1.84-1.824z" fill="#fff"/><path d="M36.926 49.623V5.143c0-1.006-.826-1.824-1.84-1.824h-1.84v1.824c0 2.772-2.267 5.02-5.063 5.02H23.65v41.285h11.436c1.015 0 1.84-.818 1.84-1.824h0z" fill-opacity=".133" fill="#d4d4d4"/><circle fill="#e59f6e" cx="7.261" cy="43.771" r="3.527"/><path d="M11.72 32.57c2.004 0 3.63-1.626 3.63-3.63s-1.627-3.63-3.63-3.63H4.46c-2.004 0-3.63 1.626-3.63 3.63s1.626 3.63 3.63 3.63h1.815c-2.004 0-3.63 1.626-3.63 3.63s1.626 3.63 3.63 3.63h5.445c2.004 0 3.63-1.626 3.63-3.63s-1.627-3.63-3.63-3.63z" fill="#f4b991"/><path d="M27.043 48.128h-6.79c-.875 0-1.584-.743-1.584-1.66s.71-1.66 1.584-1.66h6.79c.875 0 1.584.743 1.584 1.66s-.71 1.66-1.584 1.66z" fill="#bdbdbd"/><path d="M28.628 46.468c0-.917-.71-1.66-1.584-1.66H23.65v3.32h3.394c.875 0 1.584-.743 1.584-1.66z" fill="#b0b0b0"/><path d="M49.343 25.335V20.4c0-3.017-2.428-5.463-5.423-5.463H30.686c-.678 0-1.23.554-1.23 1.238 0 4.338 3.504 7.867 7.8 7.867h3.036v23.672h3.616c2.996 0 5.423-2.446 5.423-5.463h3.834c.877 0 1.59-.717 1.59-1.6V26.936c0-.884-.71-1.6-1.59-1.6h-3.834z" fill="#f4b991"/><path d="M11.64 32.384H6.188c-2.007 0-3.635 1.667-3.635 3.72s1.628 3.72 3.635 3.72h5.452c2.007 0 3.635-1.667 3.635-3.72s-1.628-3.72-3.635-3.72zm28.586.393v14.885h3.635c3.012 0 5.452-2.5 5.452-5.582h3.855c.882 0 1.597-.732 1.597-1.635v-7.668h-14.54z" fill="#efae81"/><path d="M22.304 28.387v-.337a3.24 3.24 0 0 0-.063-.675 2.21 2.21 0 0 0-.2-.559c-.09-.176-.218-.355-.38-.538s-.362-.386-.6-.61l-.717-.727c-.225-.246-.422-.51-.6-.79a4.04 4.04 0 0 1-.401-.906c-.098-.323-.148-.69-.148-1.096 0-.562.112-1.09.337-1.58a3.83 3.83 0 0 1 .938-1.275c.4-.358.882-.64 1.444-.843s1.18-.306 1.855-.306c.632 0 1.202.098 1.708.295a4.58 4.58 0 0 1 1.318.769c.372.316.682.67.928 1.065s.425.787.538 1.18h0l-2.424 1.012a2.6 2.6 0 0 0-.264-.654c-.12-.21-.27-.4-.453-.57s-.394-.302-.632-.4-.506-.148-.8-.148c-.548 0-.98.162-1.296.485a1.55 1.55 0 0 0-.474 1.117c0 .408.105.752.316 1.033a6.55 6.55 0 0 0 .885.928c.365.31.67.597.917.864s.443.534.6.8.256.545.327.833.105.6.105.938h0v.696h-2.762zm1.412 5.312c-.506 0-.938-.18-1.296-.538s-.538-.79-.538-1.296a1.73 1.73 0 0 1 .538-1.286c.358-.35.79-.527 1.296-.527a1.75 1.75 0 0 1 1.286.527 1.75 1.75 0 0 1 .527 1.286c0 .506-.176.938-.527 1.296a1.73 1.73 0 0 1-1.286.538z" fill="#1d3461"/></g></g></svg>