<svg xmlns="http://www.w3.org/2000/svg" width="69" height="40" fill-rule="evenodd" xmlns:v="https://vecta.io/nano"><path d="M19.728 2.315H5.28c-.613 0-1.1-.52-1.1-1.158S4.666 0 5.28 0h14.448c.613 0 1.1.52 1.1 1.158s-.498 1.158-1.1 1.158zm0 5.557h-3.334c-.613 0-1.1-.52-1.1-1.158s.498-1.158 1.1-1.158h3.334c.613 0 1.1.52 1.1 1.158s-.498 1.158-1.1 1.158zm-6.453 0H2.47c-.596 0-1.08-.52-1.08-1.158s.484-1.158 1.08-1.158h10.806c.596 0 1.08.52 1.08 1.158s-.484 1.158-1.08 1.158zm6.483 5.558h-4.322c-.596 0-1.08-.52-1.08-1.158s.484-1.158 1.08-1.158h4.322c.596 0 1.08.52 1.08 1.158s-.484 1.158-1.08 1.158z" fill="#000" fill-rule="nonzero"/><path d="M64.162 33.342h-47.5V25.47h51.403v3.85c0 2.22-1.752 4.023-3.912 4.023z" fill="#494949" fill-rule="nonzero"/><path d="M63.982 34.268H16.378a1.09 1.09 0 0 1-1.096-1.08v-7.564a1.09 1.09 0 0 1 1.096-1.08h51.526A1.09 1.09 0 0 1 69 25.624v3.7c0 2.727-2.25 4.946-5.018 4.946zm-46.508-2.16h46.508c1.558 0 2.825-1.25 2.825-2.785v-2.618H17.474v5.403z" fill="#000" fill-rule="nonzero"/><path d="M49.55 7.872h7.735c5.958 0 10.788 4.875 10.788 10.89v6.708H49.55V7.872z" fill="#ff3c35"/><g fill-rule="nonzero"><path d="M67.903 26.86H49.258c-.605 0-1.097-.496-1.097-1.106v-17.7c0-.61.49-1.106 1.097-1.106h7.786c6.593 0 11.956 5.4 11.956 12.06v6.747c0 .61-.49 1.106-1.097 1.106zm-17.55-2.213h16.452v-5.64c0-5.43-4.38-9.847-9.763-9.847h-6.69v15.488z" fill="#000"/><path d="M64.832 18.987h-12.04v-6.483h5.473c3.627 0 6.567 2.903 6.567 6.483h0z" fill="#2abbe9"/><path d="M64.654 19.913H52.507c-.6 0-1.104-.493-1.104-1.1v-6.6c0-.607.495-1.1 1.104-1.1h5.522c4.262 0 7.73 3.454 7.73 7.7 0 .607-.495 1.1-1.104 1.1zm-11.043-2.2h9.828c-.513-2.507-2.744-4.4-5.41-4.4H53.61v4.4z" fill="#000"/><circle fill="#494949" cx="25.238" cy="33.111" r="4.399"/><path d="M25.47 38.9c-3.064 0-5.557-2.493-5.557-5.557s2.493-5.557 5.557-5.557 5.557 2.493 5.557 5.557S28.534 38.9 25.47 38.9zm0-8.89a3.34 3.34 0 0 0-3.334 3.334 3.34 3.34 0 0 0 3.334 3.334 3.34 3.34 0 0 0 3.334-3.334 3.34 3.34 0 0 0-3.334-3.334z" fill="#000"/><circle fill="#494949" cx="59.044" cy="33.111" r="4.399"/><g fill="#000"><path d="M59.275 38.9c-3.064 0-5.557-2.493-5.557-5.557s2.493-5.557 5.557-5.557 5.557 2.493 5.557 5.557S62.34 38.9 59.275 38.9zm0-8.89a3.34 3.34 0 0 0-3.334 3.334 3.34 3.34 0 0 0 3.334 3.334 3.34 3.34 0 0 0 3.334-3.334 3.34 3.34 0 0 0-3.334-3.334z"/><path d="M67.905 38.9h-66.8C.49 38.9 0 38.38 0 37.742s.49-1.158 1.095-1.158h66.8c.605 0 1.095.52 1.095 1.158s-.5 1.158-1.095 1.158z"/></g><path fill="#997843" d="M36.12 3.705h8.8V25.47h-8.8z"/><path d="M45.197 26.396h-8.89c-.613 0-1.11-.5-1.11-1.094V3.4c0-.604.498-1.094 1.11-1.094h8.89c.613 0 1.11.5 1.11 1.094v21.892c0 .604-.498 1.094-1.11 1.094zm-7.78-2.19h6.67V4.504h-6.67v19.702z" fill="#000"/><path fill="#997843" d="M23.154 13.43h8.8v12.04h-8.8z"/><path d="M31.768 26.86h-8.89a1.11 1.11 0 0 1-1.111-1.104V13.608a1.11 1.11 0 0 1 1.111-1.104h8.89a1.11 1.11 0 0 1 1.111 1.104v12.147a1.11 1.11 0 0 1-1.111 1.104zm-7.78-2.21h6.67v-9.94h-6.67v9.94z" fill="#000"/><path fill="#997843" d="M30.564 7.872h8.8V25.47h-8.8z"/><path d="M39.64 26.86h-8.89a1.11 1.11 0 0 1-1.111-1.106v-17.7a1.11 1.11 0 0 1 1.111-1.106h8.89a1.11 1.11 0 0 1 1.111 1.106v17.7a1.11 1.11 0 0 1-1.111 1.106zm-7.78-2.213h6.67V9.16h-6.67v15.488z" fill="#000"/></g></svg>