<svg xmlns="http://www.w3.org/2000/svg" xmlns:xlink="http://www.w3.org/1999/xlink" width="111" height="95" xmlns:v="https://vecta.io/nano"><style><![CDATA[.E{fill:#dcdbde}.F{fill:#736f7b}.G{fill:#000}.H{fill:#595959}]]></style><path d="M19.85 45h53.622v-33.2a.65.65 0 0 0-.644-.648H19.85c-.355 0-.644.3-.644.648v32.56a.65.65 0 0 0 .644.648zm4.415-5.92h44.15a.83.83 0 1 1 0 1.665h-44.15a.83.83 0 1 1 0-1.665zm44.15-4.255h-44.15a.83.83 0 1 1 0-1.665h44.15a.83.83 0 1 1 0 1.665zm0-5.92h-44.15a.83.83 0 1 1 0-1.665h44.15a.83.83 0 1 1 0 1.665zm0-5.92h-44.15a.83.83 0 1 1 0-1.665h44.15a.83.83 0 1 1 0 1.665zm0-5.92h-44.15a.83.83 0 1 1 0-1.665h44.15a.83.83 0 1 1 0 1.665z" class="E"/><g class="G"><use xlink:href="#A"/><use xlink:href="#A" y="5.92"/><use xlink:href="#A" y="11.842"/><use xlink:href="#A" y="17.762"/><use xlink:href="#A" y="23.683"/></g><path d="M108.793 34.134l-.308-.8H93.433c-2.9 0-5.243-2.365-5.243-5.273v-7.4a.83.83 0 0 1 .828-.833h14.306l-.383-.993a5.09 5.09 0 0 0-4.722-3.263H86.075c-1.166 0-2.115.955-2.115 2.128V45h8.002c4.815 0 8.928 3.617 9.57 8.415l.075.56.555-.085a.63.63 0 0 1 .103-.008h5.887c.355 0 .644-.3.644-.648v-5.088h-2.115a2.31 2.31 0 0 1-2.299-2.313v-1.48a2.31 2.31 0 0 1 2.299-2.313h2.115v-7.895z" fill="#ff3c35"/><g fill-opacity=".2" class="G"><path d="M109.2 41.08v-6.202l-.4-1.638h-7.174c1.083 6.573-2.76 14.5-2.76 14.5s2.676 3.77 3 5.827l.093.6h6.417c.448 0 .812-.366.812-.817V41.08z"/><use xlink:href="#B"/></g><path d="M106.125 43.93v2.302a.15.15 0 0 0 .143.144h2.432v-2.6h-2.432a.15.15 0 0 0-.143.144z" fill="#f7e365"/><path d="M89.845 28.06c0 2 1.6 3.608 3.587 3.608h14.416l-3.9-10.176H89.845v6.568z" fill="#bfd2e5"/><use xlink:href="#C" class="F"/><use xlink:href="#D" class="H"/><use xlink:href="#E" class="E"/><path d="M85.368 47.614l1.02-.96H50.442l1.02.96c1.62 1.526 2.677 3.577 2.974 5.775l.065.48h2.785v-.648c0-2.1 1.692-3.793 3.77-3.793h8.83c2.08 0 3.77 1.7 3.77 3.793v.648h8.67l.065-.48a9.75 9.75 0 0 1 2.974-5.775z" class="F"/><path d="M82.303 17.698l.002-.093v-.555H75.13V45h7.174zM69.886 51.095h-8.83c-1.166 0-2.116.955-2.116 2.128v2.96c0 1.173.95 2.128 2.116 2.128h8.83c1.166 0 2.115-.955 2.115-2.128v-2.96c0-1.174-.95-2.128-2.115-2.128zM61.7 54.703c0-.216.1-.436.245-.6a.82.82 0 0 1 .583-.243c.215 0 .433.1.586.246s.242.37.242.586-.1.436-.245.6a.82.82 0 0 1-.583.243c-.215 0-.433-.1-.586-.246s-.242-.37-.242-.586z" fill="#a7a5ac"/><use xlink:href="#F" class="F"/><use xlink:href="#D" x="-47.184" y=".001" class="H"/><use xlink:href="#E" x="-47.093" class="E"/><use xlink:href="#F" x="-17.66" class="F"/><use xlink:href="#D" x="-64.625" y=".001" class="H"/><use xlink:href="#E" x="-64.752" class="E"/><use xlink:href="#G" fill="#d5eaff"/><path d="M111 33.98v19.242c0 1.582-1.28 2.868-2.85 2.868h-5.887a1.24 1.24 0 0 1-.186-.015c-.67 5.016-4.95 8.896-10.116 8.896s-9.437-3.872-10.114-8.88H74.2v.093c0 2.398-1.94 4.348-4.323 4.348h-8.83c-2.384 0-4.323-1.95-4.323-4.348V56.1h-1.75c-.677 5-4.952 8.88-10.114 8.88-3.766 0-7.06-2.063-8.83-5.123-1.77 3.06-5.064 5.123-8.83 5.123-5.63 0-10.2-4.607-10.2-10.27a10.26 10.26 0 0 1 3.24-7.493h-.388c-1.573 0-2.85-1.286-2.85-2.868v-32.57c0-1.582 1.28-2.868 2.85-2.868h52.98c1.573 0 2.85 1.286 2.85 2.868v3.053h1.656V6.216a3.05 3.05 0 0 0-.888-2.16l-1.65-1.66a1.39 1.39 0 0 1 0-1.961 1.37 1.37 0 0 1 1.95 0l1.65 1.66c1.095 1.1 1.698 2.564 1.698 4.12v8.615h2.734a4.3 4.3 0 0 1 3.245-1.48H98.22c2.986 0 5.7 1.884 6.782 4.685l5.907 15.447c.004.01.006.02.01.03.01.028.02.057.028.085.006.018.01.037.015.057l.017.072.01.074c.002.018.006.04.007.06.002.03.004.057.004.087 0 .01.002.022.002.033zm-2.76 19.242V48.7h-1.564c-1.573 0-2.85-1.286-2.85-2.868v-1.48c0-1.582 1.28-2.868 2.85-2.868h1.564v-7.236l-.134-.35H93.433c-3.195 0-5.795-2.614-5.795-5.828v-7.4c0-.766.618-1.388 1.38-1.388h13.5l-.092-.24c-.664-1.74-2.355-2.907-4.207-2.907H86.074a1.57 1.57 0 0 0-1.564 1.573v26.735h7.45c5.165 0 9.446 3.88 10.116 8.896a1.24 1.24 0 0 1 .186-.015h5.887c.05 0 .092-.04.092-.092zm0-7.308V44.25h-1.564c-.048 0-.092.044-.092.093v1.48c0 .048.044.093.092.093h1.564zm-1.196-14.802l-3.466-9.066h-13.18v6.013c0 1.684 1.36 3.053 3.035 3.053h13.613zm-7.634 23.6c0-4.132-3.343-7.493-7.45-7.493s-7.45 3.362-7.45 7.493 3.343 7.493 7.45 7.493 7.45-3.362 7.45-7.493zM85 47.2H51.84a10.27 10.27 0 0 1 3.144 6.106h1.75v-.093c0-2.398 1.94-4.348 4.323-4.348h8.83c2.384 0 4.323 1.95 4.323 4.348v.093h7.638c.324-2.396 1.47-4.53 3.144-6.106zm-3.24-29.5c0-.03.002-.06.002-.093H75.68v26.828h6.07V17.698zm-8.83 26.735V11.778c0-.052-.04-.093-.092-.093H19.85c-.052 0-.092.04-.092.093V44.34c0 .052.04.093.092.093h53.07zm-1.472 11.75v-2.96a1.57 1.57 0 0 0-1.564-1.573h-8.83a1.57 1.57 0 0 0-1.564 1.573v2.96a1.57 1.57 0 0 0 1.564 1.573h8.83a1.57 1.57 0 0 0 1.564-1.573zm-19.13-1.48c0-4.132-3.343-7.493-7.45-7.493s-7.45 3.362-7.45 7.493 3.343 7.493 7.45 7.493 7.45-3.362 7.45-7.493zM37.9 47.2h-3.72a10.3 10.3 0 0 1 1.86 2.348 10.31 10.31 0 0 1 1.86-2.348zm-3.24 7.493c0-4.132-3.343-7.493-7.45-7.493s-7.45 3.362-7.45 7.493 3.343 7.493 7.45 7.493 7.45-3.362 7.45-7.493zm58.865 0a1.57 1.57 0 1 1-1.564-1.572c.762 0 1.38-.622 1.38-1.388s-.618-1.388-1.38-1.388c-2.384 0-4.323 1.95-4.323 4.348s1.94 4.348 4.323 4.348 4.323-1.95 4.323-4.348c0-.766-.618-1.388-1.38-1.388s-1.38.622-1.38 1.388zM62.53 53.315a1.38 1.38 0 0 0-.975.407c-.258.257-.405.616-.405.98s.147.723.405.98a1.38 1.38 0 0 0 1.95 0c.258-.257.405-.616.405-.98s-.147-.723-.405-.98a1.38 1.38 0 0 0-.975-.407zm-16.096 1.388a1.57 1.57 0 1 1-1.564-1.572c.762 0 1.38-.622 1.38-1.388s-.618-1.388-1.38-1.388c-2.384 0-4.323 1.95-4.323 4.348s1.94 4.348 4.323 4.348 4.323-1.95 4.323-4.348c0-.766-.618-1.388-1.38-1.388s-1.38.622-1.38 1.388zm-17.66 0a1.57 1.57 0 1 1-1.564-1.572c.762 0 1.38-.622 1.38-1.388s-.618-1.388-1.38-1.388c-2.384 0-4.323 1.95-4.323 4.348s1.94 4.348 4.323 4.348 4.323-1.95 4.323-4.348c0-.766-.618-1.388-1.38-1.388s-1.38.622-1.38 1.388z" class="G"/><path d="M2.85 75h53.622v-33.2a.65.65 0 0 0-.644-.648H2.85c-.355 0-.644.3-.644.648v32.56a.65.65 0 0 0 .644.648zm4.415-5.92h44.15a.83.83 0 1 1 0 1.665H7.266a.83.83 0 1 1 0-1.665zm44.15-4.255H7.266a.83.83 0 1 1 0-1.665h44.15a.83.83 0 1 1 0 1.665zm0-5.92H7.266a.83.83 0 1 1 0-1.665h44.15a.83.83 0 1 1 0 1.665zm0-5.92H7.266a.83.83 0 1 1 0-1.665h44.15a.83.83 0 1 1 0 1.665zm0-5.92H7.266a.83.83 0 1 1 0-1.665h44.15a.83.83 0 1 1 0 1.665z" class="E"/><g class="G"><use xlink:href="#H"/><use xlink:href="#H" y="5.92"/><use xlink:href="#H" y="11.842"/><use xlink:href="#H" y="17.762"/><use xlink:href="#H" y="23.683"/></g><path d="M91.793 64.134l-.308-.8H76.433c-2.9 0-5.243-2.365-5.243-5.273v-7.4a.83.83 0 0 1 .828-.833h14.306l-.383-.993a5.09 5.09 0 0 0-4.722-3.263H69.075c-1.166 0-2.115.955-2.115 2.128V75h8.002c4.815 0 8.928 3.617 9.57 8.415l.075.56.555-.085a.63.63 0 0 1 .103-.008h5.887c.355 0 .644-.3.644-.648v-5.088H89.68a2.31 2.31 0 0 1-2.299-2.313v-1.48a2.31 2.31 0 0 1 2.299-2.313h2.115v-7.895z" fill="#ff3c35"/><g fill-opacity=".2" class="G"><path d="M92.2 71.08v-6.202l-.4-1.638h-7.174c1.083 6.573-2.76 14.5-2.76 14.5s2.676 3.77 3 5.827l.093.6h6.417c.448 0 .812-.366.812-.817V71.08z"/><use xlink:href="#B" x="-17" y="30"/></g><path d="M89.125 73.93v2.302a.15.15 0 0 0 .143.144H91.7v-2.6h-2.432a.15.15 0 0 0-.143.144z" fill="#f7e365"/><path d="M72.845 58.06c0 2 1.6 3.608 3.587 3.608h14.416l-3.9-10.176H72.845v6.568z" fill="#bfd2e5"/><use xlink:href="#C" x="-17" y="30" class="F"/><use xlink:href="#D" x="-17" y="30" class="H"/><use xlink:href="#E" x="-17" y="30" class="E"/><path d="M68.368 77.614l1.02-.96H33.442l1.02.96c1.62 1.526 2.677 3.577 2.974 5.775l.065.48h2.785v-.648c0-2.1 1.692-3.793 3.77-3.793h8.83c2.08 0 3.77 1.7 3.77 3.793v.648h8.672l.065-.48a9.75 9.75 0 0 1 2.974-5.775z" class="F"/><path d="M65.303 47.698l.002-.093v-.555H58.13V75h7.174zM52.886 81.095h-8.83c-1.166 0-2.116.955-2.116 2.128v2.96c0 1.173.95 2.128 2.116 2.128h8.83c1.166 0 2.115-.955 2.115-2.128v-2.96c0-1.174-.95-2.128-2.115-2.128zM44.7 84.703c0-.216.1-.436.245-.6a.82.82 0 0 1 .583-.243c.215 0 .433.1.586.246s.242.37.242.586-.1.436-.245.6a.82.82 0 0 1-.583.243c-.215 0-.433-.1-.586-.246s-.242-.37-.242-.586z" fill="#a7a5ac"/><use xlink:href="#F" x="-17" y="30" class="F"/><use xlink:href="#D" x="-64.184" y="30.001" class="H"/><use xlink:href="#E" x="-64.093" y="30" class="E"/><use xlink:href="#F" x="-34.66" y="30" class="F"/><use xlink:href="#D" x="-81.625" y="30.001" class="H"/><use xlink:href="#E" x="-81.752" y="30" class="E"/><use xlink:href="#G" x="-17" y="30" fill="#d5eaff"/><path d="M94 63.98v19.242c0 1.582-1.28 2.868-2.85 2.868h-5.887a1.24 1.24 0 0 1-.186-.015c-.67 5.016-4.95 8.896-10.116 8.896s-9.437-3.872-10.114-8.88H57.2v.093c0 2.398-1.94 4.348-4.323 4.348h-8.83c-2.384 0-4.323-1.95-4.323-4.348V86.1h-1.75c-.677 5-4.952 8.88-10.114 8.88-3.766 0-7.06-2.063-8.83-5.123-1.77 3.06-5.064 5.123-8.83 5.123C4.58 94.97 0 90.364 0 84.702a10.26 10.26 0 0 1 3.24-7.493h-.4C1.278 77.2 0 75.923 0 74.34V41.778C0 40.196 1.28 38.9 2.85 38.9h52.98c1.573 0 2.85 1.286 2.85 2.868v3.053h1.656v-8.615a3.05 3.05 0 0 0-.888-2.16l-1.65-1.66a1.39 1.39 0 0 1 0-1.961 1.37 1.37 0 0 1 1.95 0l1.65 1.66c1.095 1.1 1.698 2.564 1.698 4.12v8.615h2.734a4.3 4.3 0 0 1 3.245-1.48H81.22c2.986 0 5.7 1.884 6.782 4.685l5.907 15.447c.004.01.006.02.01.03.01.028.02.057.028.085.006.018.01.037.015.057l.017.072.01.074c.002.018.006.04.007.06.002.03.004.057.004.087 0 .01.002.022.002.033zm-2.76 19.242V78.7h-1.564c-1.573 0-2.85-1.286-2.85-2.868v-1.48c0-1.582 1.28-2.868 2.85-2.868h1.564v-7.236l-.134-.35H76.433c-3.195 0-5.795-2.614-5.795-5.828v-7.4c0-.766.618-1.388 1.38-1.388h13.5l-.092-.24c-.664-1.74-2.355-2.907-4.207-2.907H69.074a1.57 1.57 0 0 0-1.564 1.573v26.735h7.45c5.165 0 9.446 3.88 10.116 8.896a1.24 1.24 0 0 1 .186-.015h5.887c.05 0 .092-.04.092-.092zm0-7.308V74.25h-1.564c-.048 0-.092.044-.092.093v1.48c0 .048.044.093.092.093h1.564zm-1.196-14.802l-3.466-9.066h-13.18v6.013c0 1.684 1.36 3.053 3.035 3.053h13.613zm-7.634 23.6c0-4.132-3.343-7.493-7.45-7.493s-7.45 3.362-7.45 7.493 3.343 7.493 7.45 7.493 7.45-3.362 7.45-7.493zM68 77.2H34.84a10.27 10.27 0 0 1 3.144 6.106h1.75v-.093c0-2.398 1.94-4.348 4.323-4.348h8.83c2.384 0 4.323 1.95 4.323 4.348v.093h7.638c.324-2.396 1.47-4.53 3.144-6.106zm-3.24-29.5c0-.03.002-.06.002-.093H58.68v26.828h6.07V47.698zm-8.83 26.735V41.778c0-.052-.04-.093-.092-.093H2.85c-.052 0-.092.04-.092.093V74.34c0 .052.04.093.092.093h53.07zm-1.472 11.75v-2.96a1.57 1.57 0 0 0-1.564-1.573h-8.83a1.57 1.57 0 0 0-1.564 1.573v2.96a1.57 1.57 0 0 0 1.564 1.573h8.83a1.57 1.57 0 0 0 1.564-1.573zm-19.13-1.48c0-4.132-3.343-7.493-7.45-7.493s-7.45 3.362-7.45 7.493 3.343 7.493 7.45 7.493 7.45-3.362 7.45-7.493zM20.9 77.2h-3.72a10.3 10.3 0 0 1 1.86 2.348 10.31 10.31 0 0 1 1.86-2.348zm-3.24 7.493c0-4.132-3.343-7.493-7.45-7.493s-7.45 3.362-7.45 7.493 3.343 7.493 7.45 7.493 7.45-3.362 7.45-7.493zm58.865 0a1.57 1.57 0 1 1-1.564-1.572c.762 0 1.38-.622 1.38-1.388s-.618-1.388-1.38-1.388c-2.384 0-4.323 1.95-4.323 4.348s1.94 4.348 4.323 4.348 4.323-1.95 4.323-4.348c0-.766-.618-1.388-1.38-1.388s-1.38.622-1.38 1.388zM45.53 83.315a1.38 1.38 0 0 0-.975.407c-.258.257-.405.616-.405.98s.147.723.405.98a1.38 1.38 0 0 0 1.95 0c.258-.257.405-.616.405-.98s-.147-.723-.405-.98a1.38 1.38 0 0 0-.975-.407zm-16.096 1.388a1.57 1.57 0 1 1-1.564-1.572c.762 0 1.38-.622 1.38-1.388s-.618-1.388-1.38-1.388c-2.384 0-4.323 1.95-4.323 4.348s1.94 4.348 4.323 4.348 4.323-1.95 4.323-4.348c0-.766-.618-1.388-1.38-1.388s-1.38.622-1.38 1.388zm-17.66 0a1.57 1.57 0 1 1-1.564-1.572c.762 0 1.38-.622 1.38-1.388s-.618-1.388-1.38-1.388c-2.384 0-4.323 1.95-4.323 4.348s1.94 4.348 4.323 4.348 4.323-1.95 4.323-4.348c0-.766-.618-1.388-1.38-1.388s-1.38.622-1.38 1.388z" class="G"/><defs><path id="A" d="M68.415 14.83c.762 0 1.38.622 1.38 1.388s-.618 1.388-1.38 1.388h-44.15c-.762 0-1.38-.622-1.38-1.388s.618-1.388 1.38-1.388h44.15z"/><path id="B" d="M98.288 20.25h5.1l-.52-1.22-.017-.037.004.006c-.842-2.206-3.408-5.398-7.584-4.058 1.174 1.647 2.52 3.432 3.016 5.3z"/><path id="C" d="M91.96 46.653c-4.412 0-8.002 3.6-8.002 8.048s3.6 8.048 8.002 8.048 8.002-3.6 8.002-8.048-3.6-8.048-8.002-8.048zm3.77 8.05c0 2.1-1.692 3.793-3.77 3.793s-3.77-1.7-3.77-3.793 1.692-3.793 3.77-3.793c.36 0 .665.235.778.56a3.33 3.33 0 0 1 2.437 2.45.83.83 0 0 1 .556.783z"/><path id="D" d="M99.982 50.452c-1.328-2.966-4.318-5.037-7.8-5.037a8.6 8.6 0 0 0-1.755.181c2.84.487 5.197 2.37 6.34 4.915a8.43 8.43 0 0 1 .733 3.457 8.42 8.42 0 0 1-.222 1.937c-.75 3.197-3.313 5.7-6.546 6.377a8.65 8.65 0 0 0 1.449.122c4.04 0 7.425-2.798 8.305-6.558a8.42 8.42 0 0 0 .222-1.937 9.12 9.12 0 0 0-.034-.76 8.32 8.32 0 0 0-.704-2.697z"/><path id="E" d="M92.74 51.47a3.28 3.28 0 0 0-.778-.097c-1.826 0-3.3 1.494-3.3 3.33s1.485 3.33 3.3 3.33 3.3-1.494 3.3-3.33c0-.27-.036-.53-.096-.783-.3-1.208-1.236-2.158-2.437-2.45z"/><path id="F" d="M44.87 46.654c-4.412 0-8.002 3.6-8.002 8.048s3.6 8.048 8.002 8.048 8.002-3.6 8.002-8.048-3.6-8.048-8.002-8.048zm3.77 8.05c0 2.1-1.692 3.793-3.77 3.793s-3.77-1.7-3.77-3.793 1.692-3.793 3.77-3.793c.36 0 .665.235.778.56a3.33 3.33 0 0 1 2.437 2.45.83.83 0 0 1 .556.783z"/><path id="G" d="M101.374 28.48l-.032-.222c-.567-2.8-1.725-5.445-3.557-7.627l-8.828-.147-.122 7.44c-.048 2.9 2.586 5.32 5.872 5.375l7.047.124c.163.003-.245-3.922-.38-4.945z"/><path id="H" d="M51.415 44.83c.762 0 1.38.622 1.38 1.388s-.618 1.388-1.38 1.388H7.266c-.762 0-1.38-.622-1.38-1.388s.618-1.388 1.38-1.388h44.15z"/></defs></svg>