<svg xmlns="http://www.w3.org/2000/svg" viewBox="0 0 512 512" xmlns:v="https://vecta.io/nano"><path d="M256 0C115.2 0 0 115.2 0 256s115.2 256 256 256 256-115.2 256-256S396.8 0 256 0zm0 17.067c63.054 0 120.598 24.764 163.413 65.033l-65.336 64.802-18.717-47.915c-.853-2.56-4.267-5.12-7.68-5.12H186.027c-3.413 0-5.973 1.707-7.68 5.12L157.013 153.6h-48.64a30.59 30.59 0 0 0-30.72 30.72v168.96a30.59 30.59 0 0 0 30.72 30.72h6.653l-34.26 33.98c-39.48-42.662-63.7-99.627-63.7-161.98 0-131.413 107.52-238.933 238.933-238.933zM315.733 256c0 33.28-26.453 59.733-59.733 59.733-13.563 0-26-4.396-35.957-11.854l84.125-83.438c7.28 9.9 11.565 22.175 11.565 35.56zm-119.466 0c0-33.28 26.453-59.733 59.733-59.733 13.665 0 26.174 4.467 36.18 12.028L207.996 291.8c-7.383-9.938-11.73-22.303-11.73-35.8zm108.107-59.8c-13.173-10.64-29.975-17-48.374-17-42.667 0-76.8 34.133-76.8 76.8 0 18.17 6.206 34.78 16.6 47.877l-63.576 63.057H107.52c-7.68 0-13.653-5.973-13.653-13.653V184.32c0-7.68 5.973-13.653 13.653-13.653h54.613c3.413 0 6.827-2.56 7.68-5.12l21.333-54.613h129.707l19.404 49.675-35.883 35.6zm-96.526 119.775C220.987 326.5 237.703 332.8 256 332.8c42.667 0 76.8-34.133 76.8-76.8 0-18.068-6.138-34.592-16.436-47.655l37.988-37.678h49.274c7.68 0 13.653 5.973 13.653 13.653v168.96c0 7.68-5.973 13.653-13.653 13.653H156.47l51.38-50.96zM256 494.933c-62.954 0-120.415-24.686-163.208-64.843l46.47-46.1H404.48c17.067 0 30.72-13.653 31.573-30.72V184.32a30.59 30.59 0 0 0-30.72-30.72H371.56l59.865-59.376c39.368 42.64 63.5 99.52 63.5 161.776-.001 131.413-107.52 238.933-238.934 238.933zm128-307.2c-9.387 0-17.067 7.68-17.067 17.067s7.68 17.067 17.067 17.067 17.067-7.68 17.067-17.067-7.68-17.067-17.067-17.067z"/></svg>
