<svg xmlns="http://www.w3.org/2000/svg" width="80" height="80" fill-rule="evenodd" xmlns:v="https://vecta.io/nano"><circle fill="#fff" cx="40" cy="40" r="40"/><path d="M64.57 37.812c3.76 1.693 5.476 6.204 3.832 10.078l-1.49 3.506c-1.644 3.873-6.026 5.64-9.786 3.947L53.722 53.8l7.443-17.53 3.405 1.533z" fill="#ff3c35"/><g fill="#1d3461"><path d="M58.617 16.948l-5.82 4.795c-3.047-3.288-7.318-5.362-12.07-5.362s-9.023 2.074-12.07 5.362l-5.82-4.795c4.423-5.033 10.793-8.22 17.89-8.22s13.466 3.188 17.89 8.22z"/><ellipse cx="44.443" cy="67.658" rx="3.716" ry="3.827"/></g><path d="M20.29 36.28l7.443 17.53-3.405 1.533c-3.76 1.693-8.142-.074-9.786-3.947l-1.49-3.506c-1.644-3.874.072-8.385 3.832-10.078l3.405-1.533z" fill="#ff3c35"/><g fill="#000" fill-rule="nonzero"><path d="M48.565 66.37c-.568-2.16-2.514-3.756-4.822-3.756-2.752 0-5 2.268-5 5.057s2.24 5.057 5 5.057c2.33 0 4.293-1.628 4.84-3.82 6.262-.42 11.5-5.57 12.9-11.77a8.75 8.75 0 0 0 6.047-5.075l1.5-3.476c1.928-4.472-.092-9.7-4.504-11.653l-2.682-1.188v-1.07c0-5.322-1.865-10.84-4.927-14.74L58.8 18.4c.56-.455.627-1.296.146-1.835-1.023-1.146-2.152-2.205-3.355-3.15-.545-.428-1.33-.327-1.75.225s-.323 1.346.222 1.774c.74.58 1.446 1.208 2.114 1.875l-3.93 3.187c-3.36-3.162-7.667-4.9-12.244-4.9s-8.883 1.728-12.244 4.9l-3.93-3.187c4.317-4.31 10.14-6.76 16.175-6.76 1.487 0 2.974.146 4.42.433a1.25 1.25 0 0 0 1.464-.997c.133-.685-.308-1.35-.984-1.484C43.297 8.162 41.648 8 40 8c-7.18 0-14.084 3.12-18.945 8.564-.482.54-.415 1.38.146 1.835l1.893 1.535c-3.062 3.9-4.927 9.42-4.927 14.74v1.07l-2.682 1.188c-4.412 1.954-6.432 7.18-4.504 11.653l1.5 3.475c1.932 4.478 7.075 6.524 11.5 4.564l3.43-1.52a1.27 1.27 0 0 0 .643-1.665l-7.393-17.133v-1.632c0-4.772 1.658-9.7 4.38-13.162l2.02 1.64c.504.408 1.234.36 1.682-.114 3-3.175 6.987-4.923 11.255-4.923s8.266 1.75 11.256 4.923c.447.474 1.177.524 1.682.114l2.02-1.64c2.72 3.46 4.38 8.4 4.38 13.162v1.632L51.946 53.44a1.27 1.27 0 0 0 .643 1.665l3.43 1.52c.922.408 1.877.64 2.828.713-1.41 4.91-5.62 8.645-10.28 9.033zm-4.822 3.83c-1.376 0-2.495-1.134-2.495-2.528s1.12-2.528 2.495-2.528 2.495 1.134 2.495 2.528-1.12 2.528-2.495 2.528zM25.268 53.294l-2.286 1.013c-3.158 1.4-6.834-.058-8.215-3.26l-1.5-3.475c-1.378-3.194.066-6.928 3.217-8.324l2.287-1.013 6.497 15.06zm31.75 1.013l-2.287-1.013 6.497-15.06 2.287 1.013c3.15 1.396 4.594 5.13 3.217 8.324l-1.5 3.475c-1.377 3.193-5.062 4.655-8.214 3.26h0z"/><ellipse cx="49.981" cy="11.54" rx="1.248" ry="1.264"/></g></svg>