<svg xmlns="http://www.w3.org/2000/svg" width="112" height="111" fill="none" fill-rule="evenodd" xmlns:v="https://vecta.io/nano"><g fill-rule="nonzero"><path d="M60.804 93.433l-18.17 6.635-.69 2.466c-.978 3.5-4.695 6.38-8.258 6.38H69.75l-8.947-15.482z" fill="#adaca7"/><path d="M68.69 101.54l-2.544-8.82-10.493-6.43-10.493 6.43-1.854 6.43h18.204l.7 2.4c.98 3.402 4.704 6.184 8.274 6.184h6.49c-3.57 0-7.293-2.782-8.274-6.184z" fill="#8f8f8b"/><path d="M96.197 93.433h6.612c3.636 0 6.612-2.894 6.612-6.43V74.14L96.197 61.278v32.155z" fill="#adaca7"/><path d="M1.23 87.138c0 3.462 2.92 6.295 6.487 6.295H95.72c3.568 0 6.487-2.833 6.487-6.295V49.37L1.23 74.55v12.6z" fill="#cbc9c2"/><path d="M102.808 10.07h-6.612l6.612 64.31h6.612V16.5c0-3.537-2.975-6.43-6.612-6.43z" fill="#404242"/><path d="M102.207 16.5c0-3.537-2.92-6.43-6.487-6.43H7.717c-3.568 0-6.487 2.894-6.487 6.43V74.38l106.917-.874-5.94-5.557L54.962 42.22l47.245-25.72z" fill="#565959"/><path d="M102.207 17.22l-6.436-.004c0 .001-40.447 25.605-40.447 25.605L95.77 68.424l6.437-.004v-51.2z" fill="#122955"/></g><path d="M96.197 17.22l-87.735-.005c-.005.003-.01 51.208-.02 51.21l87.752-.004c.001 0-.007-51.2.002-51.2z" fill="#1d3461"/><ellipse fill="#ff3c35" cx="55.325" cy="83.906" rx="3.606" ry="3.573"/><g fill-rule="nonzero"><path fill="#fcc023" d="M75.76 4.115h13.223v42.873H75.76z"/><g fill="#fcd72b"><path d="M81.77 12.33L20.464 4.115v42.873l61.307-8.216z"/><path d="M88.984 46.632v1.546h-6.41L69.75 38.65h12.822l4.037 3.177c1.502 1.173 2.374 2.938 2.374 4.804z"/></g><path d="M65.455 25.55H43.188l-20.35 17.057c-1.502 1.25-2.373 3.128-2.373 5.115v1.646H81.77V39.225L65.455 25.55zm23.53-22.626V4.47c0 1.866-.872 3.63-2.374 4.804l-4.037 3.177H69.75l12.822-9.527h6.4z" fill="#fff04a"/><path d="M81.77 2.924V12.5l-21.374 16.91c-3.537 2.797-8.613 2.797-12.15 0L22.837 9.306a6.14 6.14 0 0 1-2.373-4.828V2.924H81.77z" fill="#fff7ba"/><path d="M102.522 8.46h-11.34V2.147c0-.887-.725-1.605-1.62-1.605H21.088c-.895 0-1.62.718-1.62 1.605V8.46H8.128c-4.467 0-8.1 3.6-8.1 8.025v70.617c0 4.425 3.634 8.025 8.1 8.025H42.7l-1.95 6.76c-.783 2.715-3.852 5-6.703 5H21.844c-.895 0-1.62.718-1.62 1.605s.725 1.605 1.62 1.605h66.96c.895 0 1.62-.718 1.62-1.605s-.725-1.605-1.62-1.605H76.6c-2.85 0-5.92-2.294-6.703-5l-1.95-6.76h34.573c4.467 0 8.1-3.6 8.1-8.025V16.484c0-4.425-3.634-8.025-8.1-8.025zM22.71 10.18l18.796 15.185L22.708 40.55V10.18zm1.803 33.055l19.556-15.8 4.1 3.305c2.076 1.677 4.622 2.516 7.167 2.516a11.39 11.39 0 0 0 7.167-2.516l4.1-3.305 19.56 15.802c1.144.918 1.8 2.282 1.8 3.74H22.708a4.78 4.78 0 0 1 1.803-3.743h0zm63.43-2.685L69.146 25.365 87.94 10.18v30.37zm0-36.798a4.78 4.78 0 0 1-1.803 3.743L60.444 28.253a8.19 8.19 0 0 1-10.238 0L24.508 7.492c-1.144-.918-1.8-2.282-1.8-3.74H87.94zM8.128 11.67h11.34v3.2H8.128c-.895 0-1.62.718-1.62 1.605v22.47c0 .887.725 1.605 1.62 1.605s1.62-.718 1.62-1.605V18.1h9.72v30.494c0 .887.725 1.605 1.62 1.605H89.56c.895 0 1.62-.718 1.62-1.605V18.1h9.72v48.148H9.748V45.373c0-.887-.725-1.605-1.62-1.605s-1.62.718-1.62 1.605v22.47c0 .887.725 1.605 1.62 1.605h94.394c.895 0 1.62-.718 1.62-1.605v-51.36c0-.887-.725-1.605-1.62-1.605h-11.34v-3.2h11.34c2.68 0 4.86 2.16 4.86 4.815v56.173H3.268V16.484c0-2.655 2.18-4.815 4.86-4.815zm58.655 91.1c.445 1.542 1.328 2.958 2.487 4.127h-27.9c1.158-1.17 2.042-2.585 2.487-4.127l2.204-7.643h18.52l2.204 7.643zm35.738-10.853H8.128c-2.68 0-4.86-2.16-4.86-4.815V75.867h104.114v11.235c0 2.655-2.18 4.815-4.86 4.815zM55.325 79.142c-2.65 0-4.808 2.137-4.808 4.764s2.157 4.764 4.808 4.764 4.808-2.137 4.808-4.764-2.157-4.764-4.808-4.764zm0 6.352c-.884 0-1.603-.712-1.603-1.588s.72-1.588 1.603-1.588 1.603.712 1.603 1.588-.72 1.588-1.603 1.588z" fill="#000"/><path fill="#fff" d="M57.482 41.845l18.78 38.53 6.332-13.748 13.93-6.25z"/><g fill="#000"><path d="M76.26 82.142c-.688 0-1.315-.388-1.615-1l-18.78-38.53a1.75 1.75 0 0 1 .348-2.016c.537-.53 1.354-.67 2.043-.344L97.3 58.785a1.77 1.77 0 0 1 1.015 1.612 1.77 1.77 0 0 1-1.049 1.59l-13.32 5.976-6.055 13.144c-.288.624-.915 1.028-1.61 1.036zm-14.95-36.518l14.905 30.578 4.748-10.307a1.78 1.78 0 0 1 .888-.877l10.444-4.686-30.985-14.71z"/><path d="M97.573 83.178c-.46 0-.916-.172-1.266-.518L82.594 69.127a1.75 1.75 0 0 1 0-2.499 1.81 1.81 0 0 1 2.532 0L98.84 80.16a1.75 1.75 0 0 1 0 2.499 1.8 1.8 0 0 1-1.266.518z"/></g></g></svg>