<svg xmlns="http://www.w3.org/2000/svg" width="171" height="90" fill-rule="nonzero" xmlns:v="https://vecta.io/nano"><path d="M151.21 75.856H66.72a5.23 5.23 0 0 1-5.231-5.231l11.17-50.978a5.23 5.23 0 0 1 5.231-5.231h84.49a5.23 5.23 0 0 1 5.231 5.231l-11.17 50.978a5.23 5.23 0 0 1-5.231 5.231z" fill="#ff3c35"/><path d="M151.21 78.698H66.72c-4.452 0-8.072-3.622-8.072-8.072 0-.204.022-.41.065-.61l11.113-50.71c.178-4.295 3.728-7.733 8.066-7.733h84.49c4.452 0 8.072 3.622 8.072 8.072 0 .204-.022.41-.065.61l-11.113 50.71c-.18 4.295-3.728 7.733-8.066 7.733zm-86.866-7.823c.124 1.2 1.142 2.14 2.375 2.14h84.49c1.316 0 2.39-1.073 2.39-2.39 0-.204.022-.41.065-.61l11.09-50.62c-.124-1.2-1.142-2.14-2.375-2.14h-84.5c-1.316 0-2.39 1.073-2.39 2.39 0 .204-.022.41-.065.61l-11.092 50.62z" fill="#000"/><path fill="#ddd" d="M67.075 45.136h94.952L165.7 28.38H70.747z"/><path d="M162.027 47.977H67.075a2.85 2.85 0 0 1-2.215-1.06 2.84 2.84 0 0 1-.561-2.391l3.67-16.756a2.84 2.84 0 0 1 2.776-2.234H165.7a2.85 2.85 0 0 1 2.215 1.06 2.84 2.84 0 0 1 .561 2.391l-3.673 16.756a2.84 2.84 0 0 1-2.776 2.234zm-91.42-5.683h89.134l2.427-11.073H73.033l-2.427 11.073zM61.5 20.05H39.147a2.842 2.842 0 1 1 0-5.683H61.5a2.842 2.842 0 1 1 0 5.683zM92.2 6.086H53.1a2.842 2.842 0 1 1 0-5.683h39.1a2.842 2.842 0 1 1 0 5.683zm44.682 83.782H97.794a2.841 2.841 0 1 1 0-5.683h39.098a2.841 2.841 0 1 1 0 5.683zm-50.27 0H16.805a2.841 2.841 0 1 1 0-5.683h69.818a2.841 2.841 0 1 1 0 5.683zM39.147 6.086h-11.17a2.842 2.842 0 1 1 0-5.683h11.17a2.842 2.842 0 1 1 0 5.683zm19.55 30.72H44.732a2.842 2.842 0 1 1 0-5.683h13.964a2.842 2.842 0 1 1 0 5.683zM27.976 20.05H2.842a2.842 2.842 0 1 1 0-5.683h25.135a2.842 2.842 0 1 1 0 5.683z" fill="#000"/></svg>