<svg xmlns="http://www.w3.org/2000/svg" xmlns:xlink="http://www.w3.org/1999/xlink" width="107" height="90" xmlns:v="https://vecta.io/nano"><g fill-rule="nonzero"><path fill="#8c6b3b" d="M96.138 59.812h-69.5l-3.4-38.193h81.366z"/><path d="M96.138 61.472h-69.5a1.66 1.66 0 0 1-1.654-1.513l-3.4-38.193a1.66 1.66 0 0 1 1.654-1.807h81.367a1.66 1.66 0 0 1 1.621 2.021L97.76 60.173a1.66 1.66 0 0 1-1.621 1.3zm-67.98-3.32h66.648l7.738-34.87H25.062l3.096 34.87z" fill="#000"/><path fill="#feda38" d="M88.01 59.812H19.926l-3.32-38.193H96.31z"/><g fill="#000"><path d="M88.01 61.472H19.926a1.66 1.66 0 0 1-1.655-1.517l-3.32-38.193a1.66 1.66 0 0 1 .431-1.265c.315-.343.76-.54 1.224-.54h79.706a1.66 1.66 0 0 1 1.622 2.013L89.63 60.164a1.66 1.66 0 0 1-1.622 1.308zm-66.56-3.32h65.22l7.58-34.87H18.417l3.032 34.87z"/><path d="M16.604 23.28a1.66 1.66 0 0 1-1.648-1.477L13.46 8.335H1.66a1.66 1.66 0 1 1 0-3.321h13.284a1.66 1.66 0 0 1 1.651 1.477l1.66 14.945a1.66 1.66 0 0 1-1.467 1.833c-.062.008-.124.01-.185.01zm13.284 53.137a1.66 1.66 0 0 1-1.648-1.477l-1.66-14.945a1.66 1.66 0 0 1 1.467-1.833c.905-.1 1.732.555 1.833 1.467l1.66 14.945a1.66 1.66 0 0 1-1.467 1.833l-.185.01z"/></g><circle fill="#2a8ee6" cx="31.55" cy="81.399" r="6.642"/><use xlink:href="#B" fill="#000"/><circle fill="#2a8ee6" cx="88.009" cy="81.399" r="6.642"/><g fill="#000"><use xlink:href="#B" x="56.46"/><path d="M81.366 83.06H38.193a1.66 1.66 0 1 1 0-3.321h43.174a1.66 1.66 0 1 1 0 3.321zm-59.78-6.643a1.66 1.66 0 0 1-1.648-1.477l-1.66-14.945a1.66 1.66 0 0 1 1.467-1.833c.9-.1 1.732.555 1.833 1.467l1.66 14.945a1.66 1.66 0 0 1-1.467 1.833l-.185.01z"/></g><circle fill="#26bbec" cx="23.248" cy="81.399" r="6.642"/><path d="M23.248 89.702c-4.578 0-8.303-3.725-8.303-8.303s3.725-8.303 8.303-8.303S31.55 76.82 31.55 81.4s-3.725 8.303-8.303 8.303zm0-13.284a4.99 4.99 0 0 0-4.982 4.982 4.99 4.99 0 0 0 4.982 4.982 4.99 4.99 0 0 0 4.982-4.982 4.99 4.99 0 0 0-4.982-4.982z" fill="#000"/><circle fill="#26bbec" cx="79.706" cy="81.399" r="6.642"/><g fill="#000"><path d="M79.706 89.702c-4.578 0-8.303-3.725-8.303-8.303s3.725-8.303 8.303-8.303S88.01 76.82 88.01 81.4s-3.725 8.303-8.303 8.303zm0-13.284a4.99 4.99 0 0 0-4.982 4.982 4.99 4.99 0 0 0 4.982 4.982 4.99 4.99 0 0 0 4.982-4.982 4.99 4.99 0 0 0-4.982-4.982z"/><path d="M73.064 83.06H29.9a1.66 1.66 0 1 1 0-3.321h43.174a1.66 1.66 0 1 1 0 3.321zm6.643-23.248a1.74 1.74 0 0 1-.298-.027 1.66 1.66 0 0 1-1.337-1.93l6.642-36.532a1.66 1.66 0 1 1 3.267.594l-6.64 36.53a1.66 1.66 0 0 1-1.632 1.364zm-9.962 1.66a1.59 1.59 0 0 1-.217-.014 1.66 1.66 0 0 1-1.432-1.861l4.982-38.193c.12-.9.96-1.552 1.86-1.432a1.66 1.66 0 0 1 1.432 1.861L71.4 60.026a1.66 1.66 0 0 1-1.644 1.446zm-39.857 0a1.66 1.66 0 0 1-1.645-1.445L23.26 21.834a1.66 1.66 0 0 1 1.432-1.861c.918-.12 1.743.523 1.86 1.432l4.982 38.193a1.66 1.66 0 0 1-1.432 1.861c-.073.01-.145.013-.216.013zm29.892 0c-.048 0-.096-.001-.145-.007a1.66 1.66 0 0 1-1.51-1.798l3.32-38.193c.08-.914.88-1.602 1.798-1.5a1.66 1.66 0 0 1 1.51 1.798l-3.32 38.193a1.66 1.66 0 0 1-1.652 1.517zm-19.928 0a1.66 1.66 0 0 1-1.652-1.517l-3.32-38.193a1.66 1.66 0 0 1 1.51-1.798c.914-.095 1.72.597 1.8 1.5l3.32 38.193A1.66 1.66 0 0 1 40 61.455c-.05.005-.098.007-.146.007zm9.964 0a1.66 1.66 0 0 1-1.66-1.66V21.62a1.66 1.66 0 1 1 3.321 0v38.193a1.66 1.66 0 0 1-1.66 1.66z"/><path d="M93 33.244H18.266a1.661 1.661 0 1 1 0-3.321H93a1.661 1.661 0 1 1 0 3.321zm-1.67 9.963H18.266a1.66 1.66 0 1 1 0-3.321H91.33a1.66 1.66 0 1 1 0 3.321zm-1.66 9.963H19.926a1.66 1.66 0 1 1 0-3.321H89.67a1.66 1.66 0 1 1 0 3.321zm-29.9-41.514a1.66 1.66 0 0 1-1.66-1.66V1.693a1.66 1.66 0 1 1 3.321 0v8.303a1.66 1.66 0 0 1-1.66 1.66zm14.944 1.66c-.425 0-.85-.162-1.174-.486a1.66 1.66 0 0 1 0-2.348l6.642-6.642a1.66 1.66 0 1 1 2.348 2.348l-6.642 6.642c-.324.324-.75.486-1.174.486zm-29.89 0a1.65 1.65 0 0 1-1.174-.486L37.02 6.19a1.66 1.66 0 1 1 2.348-2.348l6.642 6.642a1.66 1.66 0 0 1 0 2.348 1.65 1.65 0 0 1-1.173.487z"/></g></g><defs ><path id="B" d="M31.55 89.702c-4.578 0-8.303-3.725-8.303-8.303s3.725-8.303 8.303-8.303 8.303 3.725 8.303 8.303-3.725 8.303-8.303 8.303zm0-13.284a4.99 4.99 0 0 0-4.982 4.982 4.99 4.99 0 0 0 4.982 4.982 4.99 4.99 0 0 0 4.982-4.982 4.99 4.99 0 0 0-4.982-4.982z"/></defs></svg>