<svg xmlns="http://www.w3.org/2000/svg" xmlns:xlink="http://www.w3.org/1999/xlink" width="93" height="90" xmlns:v="https://vecta.io/nano"><g fill-rule="nonzero"><path d="M80 67.794H11.2v-31.04c0-3.403 2.76-6.162 6.162-6.162h56.477c3.403 0 6.162 2.76 6.162 6.162v31.04z" fill="#777"/><path d="M80 69.394H11.2a1.6 1.6 0 0 1-1.6-1.6v-31.04c0-4.28 3.482-7.762 7.762-7.762h56.477c4.28 0 7.762 3.482 7.762 7.762v31.038a1.6 1.6 0 0 1-1.6 1.6zm-67.2-3.2h65.6V36.755a4.57 4.57 0 0 0-4.561-4.561H17.362a4.57 4.57 0 0 0-4.561 4.561v29.438z" fill="#000"/><path d="M73.838 78.594H17.362c-3.403 0-6.162-2.76-6.162-6.162v-5.04H80v5.04c0 3.403-2.758 6.162-6.16 6.162z" fill="#ddd"/><path d="M73.838 80.194H17.362c-4.28 0-7.762-3.482-7.762-7.762v-5.04a1.6 1.6 0 0 1 1.6-1.6H80a1.6 1.6 0 0 1 1.6 1.6v5.04c0 4.28-3.482 7.762-7.76 7.762zM12.8 68.994v3.438a4.57 4.57 0 0 0 4.561 4.561h56.477a4.57 4.57 0 0 0 4.561-4.561v-3.438H12.8z" fill="#000"/><path fill="#ddd" d="M55.8 88.194H35.4l5.93-9.6h8.54z"/><g fill="#000"><path d="M55.8 89.794H35.4a1.6 1.6 0 0 1-1.361-2.44l5.93-9.6a1.6 1.6 0 0 1 1.361-.759h8.54a1.6 1.6 0 0 1 1.361.759l5.93 9.6a1.6 1.6 0 0 1-1.361 2.44zm-17.53-3.2h14.66l-3.953-6.4H42.22l-3.953 6.4zm23.73-23a1.6 1.6 0 0 1-1.13-2.732l10.2-10.2a1.6 1.6 0 0 1 2.262 2.262l-10.2 10.2c-.313.313-.722.47-1.13.47z"/><path d="M69.8 62.994a1.6 1.6 0 0 1-1.13-2.732l3.6-3.6a1.6 1.6 0 0 1 2.262 2.262l-3.6 3.6c-.313.313-.722.47-1.13.47zm-6.8 26.8H27a1.6 1.6 0 0 1 0-3.2h36a1.6 1.6 0 0 1 0 3.2z"/></g><use xlink:href="#B" fill="#ddd"/><path d="M20.8 35.394a8.01 8.01 0 0 1-8-8v-25.6a1.6 1.6 0 0 1 1.6-1.6h12.8a1.6 1.6 0 0 1 1.6 1.6v25.6a8.01 8.01 0 0 1-8 8zm-4.8-32v24c0 2.647 2.153 4.8 4.8 4.8s4.8-2.153 4.8-4.8v-24H16z" fill="#000"/><path d="M33.6 33.794h0a6.4 6.4 0 0 1-6.4-6.4v-25.6H40v25.6a6.4 6.4 0 0 1-6.4 6.4z" fill="#a4a4a4"/><path d="M33.6 35.394a8.01 8.01 0 0 1-8-8v-25.6a1.6 1.6 0 0 1 1.6-1.6H40a1.6 1.6 0 0 1 1.6 1.6v25.6a8.01 8.01 0 0 1-8 8zm-4.8-32v24c0 2.647 2.153 4.8 4.8 4.8s4.8-2.153 4.8-4.8v-24h-9.6z" fill="#000"/><path d="M8 33.794h0a6.4 6.4 0 0 1-6.4-6.4l3.2-25.6h9.6v25.6a6.4 6.4 0 0 1-6.4 6.4z" fill="#a4a4a4"/><path d="M8 35.394a8.01 8.01 0 0 1-8-8c0-.067.004-.133.013-.198l3.2-25.6A1.6 1.6 0 0 1 4.8.194h9.6a1.6 1.6 0 0 1 1.6 1.6v25.6a8.01 8.01 0 0 1-8 8zm-4.8-7.907c.05 2.604 2.183 4.707 4.8 4.707 2.647 0 4.8-2.153 4.8-4.8v-24H6.213L3.2 27.487z" fill="#000"/><use xlink:href="#B" x="25.6" fill="#ddd"/><use xlink:href="#C" fill="#000"/><use xlink:href="#B" x="38.4" fill="#a4a4a4"/><use xlink:href="#C" x="12.8" fill="#000"/><path d="M84.8 33.794h0a6.4 6.4 0 0 1-6.4-6.4v-25.6H88l3.2 25.6a6.4 6.4 0 0 1-6.4 6.4z" fill="#a4a4a4"/><path d="M84.8 35.394a8.01 8.01 0 0 1-8-8v-25.6a1.6 1.6 0 0 1 1.6-1.6H88a1.6 1.6 0 0 1 1.587 1.402l3.2 25.6c.01.066.013.132.013.198a8.01 8.01 0 0 1-8 8zm-4.8-32v24c0 2.647 2.153 4.8 4.8 4.8 2.616 0 4.75-2.103 4.8-4.707L86.587 3.394H80z" fill="#000"/><use xlink:href="#B" x="51.2" fill="#ddd"/><use xlink:href="#C" x="25.6" fill="#000"/></g><defs ><path id="B" d="M20.8 33.794h0a6.4 6.4 0 0 1-6.4-6.4v-25.6h12.8v25.6a6.4 6.4 0 0 1-6.4 6.4z"/><path id="C" d="M46.4 35.394a8.01 8.01 0 0 1-8-8v-25.6a1.6 1.6 0 0 1 1.6-1.6h12.8a1.6 1.6 0 0 1 1.6 1.6v25.6a8.01 8.01 0 0 1-8 8zm-4.8-32v24c0 2.647 2.153 4.8 4.8 4.8s4.8-2.153 4.8-4.8v-24h-9.6z"/></defs></svg>