<svg xmlns="http://www.w3.org/2000/svg" xmlns:xlink="http://www.w3.org/1999/xlink" width="104" height="90" xmlns:v="https://vecta.io/nano"><g fill-rule="evenodd"><g fill-rule="nonzero"><path fill="#ff3c35" d="M93.038 58.265H21.065L17.554 17.9h84.26z"/><g fill="#000"><path d="M93.038 60.02H21.065c-.9 0-1.67-.696-1.75-1.604l-3.51-40.375c-.043-.49.123-.976.455-1.34s.802-.57 1.294-.57h84.26a1.76 1.76 0 0 1 1.367.654c.333.413.46.955.348 1.474l-8.777 40.375c-.175.807-.9 1.383-1.715 1.383zM22.675 56.5h68.948l8.015-36.864H19.47L22.675 56.5z"/><path d="M17.552 19.646a1.75 1.75 0 0 1-1.74-1.56l-1.584-14.24H1.755C.786 3.847 0 3.06 0 2.092S.786.336 1.755.336H15.8c.895 0 1.646.672 1.744 1.56l1.755 15.8c.107.964-.587 1.83-1.55 1.938-.064.008-.13.012-.195.012zm5.266 56.174a1.75 1.75 0 0 1-1.74-1.56l-1.755-15.8c-.107-.964.587-1.83 1.55-1.938s1.83.586 1.938 1.55l1.755 15.8c.107.964-.587 1.83-1.55 1.938-.065.007-.13.01-.196.01z"/></g><circle fill="#ff3c35" cx="24.576" cy="81.086" r="7.022"/><use xlink:href="#B" fill="#000"/><circle fill="#ff3c35" cx="84.261" cy="81.086" r="7.022"/><g fill="#000"><use xlink:href="#B" x="59.684"/><path d="M77.24 82.842h-45.64c-.97 0-1.755-.786-1.755-1.755s.786-1.755 1.755-1.755h45.64c.97 0 1.755.786 1.755 1.755s-.785 1.755-1.755 1.755z"/></g></g><path d="M98.248 28.5h-78.6l1.19 12.736H96.26L98.248 28.5z" stroke="#000" stroke-width="3" fill="#ddd"/></g><defs ><path id="B" d="M24.576 89.863a8.79 8.79 0 0 1-8.777-8.777 8.79 8.79 0 0 1 8.777-8.777 8.79 8.79 0 0 1 8.777 8.777 8.79 8.79 0 0 1-8.777 8.777zm0-14.044c-2.904 0-5.266 2.362-5.266 5.266s2.362 5.266 5.266 5.266 5.266-2.362 5.266-5.266-2.362-5.266-5.266-5.266z"/></defs></svg>